<svg id="Layer_1" data-name="Layer 1" xmlns="http://www.w3.org/2000/svg" xmlns:xlink="http://www.w3.org/1999/xlink" viewBox="0 0 2670 1408.98"><defs><style>.cls-1{fill:none;}.cls-2{fill:#ebf2f9;}.cls-3{fill:#82b479;}.cls-4{fill:#a8d29f;}.cls-5{fill:#699dee;}.cls-6{fill:#afcdfb;}.cls-26,.cls-7{fill:#fff;}.cls-11,.cls-8{fill:#d86713;}.cls-9{fill:#f1a34f;}.cls-10{fill:#ee9849;}.cls-11,.cls-26{opacity:0.4;}.cls-12{fill:#e9f3fe;}.cls-13{fill:#233862;}.cls-14{fill:#4a75cb;}.cls-15{fill:#ffb27d;}.cls-16{fill:#163560;}.cls-17{fill:#c0d8f9;}.cls-18{fill:#d4e3f4;}.cls-19{clip-path:url(#clip-path);}.cls-20{fill:#e49963;}.cls-21{fill:#a8d2a0;}.cls-22{fill:#d68d5d;}.cls-23{fill:#2b478b;}.cls-24{fill:#e7f1fd;}.cls-25{fill:#c65447;}.cls-27{fill:#283250;}</style><clipPath id="clip-path" transform="translate(-239.42 -262.99)"><polygon class="cls-1" points="1165.84 526.28 1012.22 526.28 1060.31 333.29 1213.94 333.29 1165.84 526.28"/></clipPath></defs><path class="cls-2" d="M654.72,1665.58s-291,53.44-383.6-148.73C151,1254.57,397.84,1055.71,587.19,1092.76c412.6,80.73,313.25-810,975.42-628.18,186.2,51.12,689.27-252.52,829.58,234.34,33.36,115.77,151.57,128.52,323.17,202,335.83,143.77,182.27,767.1-57.69,769.55S654.72,1665.58,654.72,1665.58Z" transform="translate(-239.42 -262.99)"/><rect class="cls-3" x="2097.7" y="1030.47" width="171.37" height="638.59" transform="translate(4127.36 2436.54) rotate(180)"/><rect class="cls-4" x="2017.69" y="1030.47" width="125.92" height="638.59" transform="translate(3921.89 2436.54) rotate(180)"/><circle class="cls-3" cx="1843.35" cy="1338.42" r="28.11"/><rect class="cls-5" x="2349.09" y="1030.47" width="171.37" height="638.59" transform="translate(4630.14 2436.54) rotate(180)"/><rect class="cls-6" x="2269.08" y="1030.47" width="125.92" height="638.59" transform="translate(4424.66 2436.54) rotate(180)"/><circle class="cls-5" cx="2094.74" cy="1338.42" r="28.11"/><rect class="cls-7" x="2066.63" y="832.47" width="56.22" height="335.18"/><rect class="cls-8" x="2597.53" y="1030.47" width="171.37" height="638.59" transform="translate(5127.02 2436.54) rotate(180)"/><rect class="cls-9" x="2517.52" y="1030.47" width="125.92" height="638.59" transform="translate(4921.54 2436.54) rotate(180)"/><circle class="cls-8" cx="2343.18" cy="1338.42" r="28.11"/><rect class="cls-7" x="2315.07" y="832.47" width="56.22" height="335.18"/><rect class="cls-7" x="1813.13" y="836.76" width="56.22" height="335.18"/><path class="cls-8" d="M1686.31,906.73l60.43,718.43s6.33,43.55-26.07,43.63c-53.26.12-265.1,0-265.1,0s40.09-9.07,39.6-29.47c-.57-24-70.62-739.39-70.62-739.39Z" transform="translate(-239.42 -262.99)"/><path class="cls-10" d="M1438.38,1655.75c10.48,0,212.81.67,264.68,0,22.6-.28,26.57-20.1,26.76-32.92a64.54,64.54,0,0,0-.69-10.7l-1.57-18.67-4-47.59-3.53-42-4.55-54-3.83-45.61-42.93-510.49L1407,886.89s29.5,299.37,50.37,517.29c2.33,24.28,4.54,47.56,6.59,69.29.67,6.94,1.3,13.73,1.93,20.33,1.93,20.62,3.7,39.55,5.24,56.27.81,8.81,1.56,17,2.23,24.5,2.67,29.39,4.23,48.15,4.25,51.72a30.53,30.53,0,0,1-.51,5.82C1472.75,1655,1442.31,1655.75,1438.38,1655.75Z" transform="translate(-239.42 -262.99)"/><polygon class="cls-9" points="825.87 252.8 2082.6 252.8 1935.42 843.98 1915.27 924.94 1846.73 1200.3 573.22 1200.3 825.87 252.8"/><polygon class="cls-10" points="2082.6 252.8 2103 259.6 1873.84 1220.86 1846.72 1200.3 2082.6 252.8"/><polygon class="cls-8" points="1873.84 1220.86 608.17 1220.86 573.22 1200.3 1846.72 1200.3 1873.84 1220.86"/><rect class="cls-9" x="1155.34" y="1393.05" width="274.04" height="13.02"/><polygon class="cls-8" points="1225 1220.86 1226.42 1230.81 1484.13 1282.88 1480.6 1240.83 1478.91 1220.86 1225 1220.86"/><path class="cls-11" d="M1438.38,1655.75c10.48,0,212.81.67,264.68,0,22.6-.28,26.57-20.1,26.76-32.92l-256.51-48.26c2.67,29.39,4.23,48.15,4.25,51.72a30.53,30.53,0,0,1-.51,5.82C1472.75,1655,1442.31,1655.75,1438.38,1655.75Z" transform="translate(-239.42 -262.99)"/><polygon class="cls-11" points="1303.84 1014.16 1846.72 1200.3 1893.09 1014.05 1303.84 1014.16"/><polygon class="cls-9" points="825.87 252.8 2082.6 252.8 1893.2 1014.05 621.97 1014.29 825.87 252.8"/><path class="cls-8" d="M1415.63,1373.54c3.63-18.68,21.71-33.82,40.38-33.82s30.88,15.14,27.25,33.82-21.72,33.81-40.39,33.81S1412,1392.21,1415.63,1373.54Z" transform="translate(-239.42 -262.99)"/><polygon class="cls-12" points="681.24 981.29 1857.92 981.29 1991.18 450.44 2001.39 409.73 2010.11 375 2030.55 293.58 870.82 293.58 848.38 375 838.81 409.73 827.59 450.44 681.24 981.29"/><polygon class="cls-4" points="870.82 293.58 2030.55 293.58 2010.11 375 848.38 375 870.82 293.58"/><path class="cls-12" d="M2214.35,583.19c5.62,0,9,4.56,7.64,10.18s-7.1,10.18-12.72,10.18-9-4.56-7.64-10.18S2208.73,583.19,2214.35,583.19Z" transform="translate(-239.42 -262.99)"/><path class="cls-12" d="M2180.53,583.19c5.62,0,9,4.56,7.64,10.18s-7.1,10.18-12.72,10.18-9-4.56-7.64-10.18S2174.91,583.19,2180.53,583.19Z" transform="translate(-239.42 -262.99)"/><path class="cls-12" d="M2131.4,593.37c1.4-5.62,7.09-10.18,12.71-10.18s9,4.56,7.64,10.18-7.09,10.18-12.71,10.18S2130,599,2131.4,593.37Z" transform="translate(-239.42 -262.99)"/><g id="man"><path class="cls-13" d="M495.87,1595.87s-15,13.88-12.06,23.74,16.44,16.44,18.27,28.5,9.13,18.63,15.71,18.63h31.35s4.84-8.48-6.85-11-16.1-16.72-15.37-29.88-1.09-30.68-1.09-30.68L501,1589.29Z" transform="translate(-239.42 -262.99)"/><path class="cls-13" d="M767.43,1666.72H684.18a6.89,6.89,0,0,1-1.62-.49c-5.55-2.77-3.82-24-3.15-30.58.13-1.22.22-1.94.22-1.94s29.23-23.37,33.25-5.47c.12.56.27,1.11.43,1.65,5.06,16.74,27.75,24.36,40.85,26.48C764.15,1658,766.75,1663.8,767.43,1666.72Z" transform="translate(-239.42 -262.99)"/><path class="cls-5" d="M750.68,1187.43s-4.44,55.38-9.65,122c-7.09,90.43-15.62,201.51-16.47,222.55-1.45,36.54-7.31,95-7.31,95s-13.87,13.89-41.64,8c0,0-24.75-83.43-31.82-171.72-.11-1.44-.22-2.9-.33-4.36-6.57-89.87-16.8-279.11-16.8-279.11Z" transform="translate(-239.42 -262.99)"/><path class="cls-14" d="M750.68,1187.43s-4.44,55.38-9.65,122l-97.24,153.85c-.11-1.44-.22-2.9-.33-4.36-6.57-89.87-16.8-279.11-16.8-279.11Z" transform="translate(-239.42 -262.99)"/><path class="cls-5" d="M730.41,1194s-80,200.56-132.61,294.82-69,120.56-69,120.56-30.14-12.06-32.88-20.28c0,0,20.12-182,55.35-226.32,19.91-25.07,43.29-100.28,44.38-126.59s7.13-78.36,7.13-78.36Z" transform="translate(-239.42 -262.99)"/><path class="cls-15" d="M811.32,1138.64l4.57,9.11s23.26,3.25,16.86,27.49c0,0-3.45,10-9.86,6.82s-3.26-2.89-12.45-7.13S795.93,1162.52,798,1155l-1.47-7.93Z" transform="translate(-239.42 -262.99)"/><path class="cls-15" d="M689.38,884.41C692.94,863.41,693,851,693,851l-40.59-32.71c1.51,45-27.32,66.61-27.32,66.61s54.1,26.63,85.37,16.77A75,75,0,0,0,689.38,884.41Z" transform="translate(-239.42 -262.99)"/><path class="cls-15" d="M702.61,850.22S651,858.8,646.12,826.56s-14.78-52.85,18-59.69,41,4.49,45.27,14.86S715.91,847.16,702.61,850.22Z" transform="translate(-239.42 -262.99)"/><path class="cls-16" d="M646.46,828.78s1-43.19,48.09-50.12c32.23-4.75,12.71-31.68,9-35.94,0,0-24.64,4.7-49.85,10.23C600.8,764.57,640.86,822.36,646.46,828.78Z" transform="translate(-239.42 -262.99)"/><path class="cls-3" d="M805.9,1151.31a88.23,88.23,0,0,0,12-16.31s-58.67-72.9-63.44-80.46-40.41-128.81-40.41-128.81L624,907.47s75.22,155.18,87.68,174.1c20.59,31.26,82.19,77.79,82.19,77.79A37.1,37.1,0,0,0,805.9,1151.31Z" transform="translate(-239.42 -262.99)"/><path class="cls-4" d="M754.13,1192a5.06,5.06,0,0,1-3.28,1.26c-11.74-.16-46,6.36-75,3.38-24.42-2.34-46-9.58-69.25-20-3.08-1.38-10.18-5.17-10-8.62.11-3.77.48-9.24,1-16.13,1.64-24,4.51-65.17,1.72-112.72-.51-8.85-.77-17.63-.8-26.28-.24-64.43,12.32-121.43,38-140.61,2.19-1.57,15.88,5.33,28.25,11.43,11.43,5.64,19.42,5.51,30.22,3.32l14.24,10.3c13.15,12.21,27.55,28.81,33.81,54,5.33,21.45,8.46,60.13,10.18,100.2.78,18.16,1.41,36.49,1.57,53.86v.63c.15,1.72.15,3.6.15,5.33C755.54,1156,754.91,1191.41,754.13,1192Z" transform="translate(-239.42 -262.99)"/><path class="cls-3" d="M597.58,1152c1.64-24,4.51-65.17,1.72-112.72-.51-8.85-.77-17.63-.8-26.28,10.69-25.94,19.44-44.76,19.44-44.76h26.95S664.66,1103.19,597.58,1152Z" transform="translate(-239.42 -262.99)"/><path class="cls-15" d="M545.13,1160.34l-5.11,8.82s10,21.23-13.76,29.17c0,0-10.24,2.58-11.11-4.52s.63-4.3-.85-14.32,2.42-18.93,9.81-21.32l5.83-5.58Z" transform="translate(-239.42 -262.99)"/><path class="cls-4" d="M531.56,1162.75a88.73,88.73,0,0,0,20.24,1.13s28.82-89,32.53-97.17,85.6-104.39,85.6-104.39l-34.12-85.38s-88.58,148-97.57,168.75c-14.86,34.36-20,111.39-20,111.39A37,37,0,0,0,531.56,1162.75Z" transform="translate(-239.42 -262.99)"/></g><polygon class="cls-6" points="1326.25 861.32 776.92 861.32 964.71 101.58 1514.04 101.58 1326.25 861.32"/><polygon class="cls-17" points="1244.2 813.92 694.87 813.92 882.66 54.17 1431.99 54.17 1244.2 813.92"/><polygon class="cls-18" points="1155.29 759.75 605.96 759.75 793.75 0 1343.08 0 1155.29 759.75"/><polygon class="cls-5" points="1420.8 101.58 1247 809.38 790.31 813.92 1260.79 824.27 1420.8 101.58"/><polygon class="cls-5" points="1329.56 54.17 1164.44 755.2 707.75 759.75 1172.19 771.22 1329.56 54.17"/><polygon class="cls-12" points="926.42 263.29 772.8 263.29 820.89 70.3 974.52 70.3 926.42 263.29"/><polygon class="cls-6" points="1277.15 96.97 1001.9 96.97 1008.67 70.3 1283.92 70.3 1277.15 96.97"/><polygon class="cls-6" points="1264.74 151.71 989.48 151.71 996.25 125.04 1271.51 125.04 1264.74 151.71"/><polygon class="cls-6" points="1251.76 206.44 976.5 206.44 983.28 179.78 1258.53 179.78 1251.76 206.44"/><polygon class="cls-6" points="1236.52 261.18 961.27 261.18 968.04 234.52 1243.29 234.52 1236.52 261.18"/><polygon class="cls-6" points="1236.52 318.18 732.64 318.18 739.42 291.52 1243.29 291.52 1236.52 318.18"/><polygon class="cls-6" points="1223.07 375.18 719.19 375.18 725.97 348.51 1229.84 348.51 1223.07 375.18"/><polygon class="cls-6" points="1204.45 439.36 700.57 439.36 707.34 412.7 1211.22 412.7 1204.45 439.36"/><polygon class="cls-6" points="1187.52 494.78 683.64 494.78 690.41 468.12 1194.29 468.12 1187.52 494.78"/><g class="cls-19"><path class="cls-20" d="M1179.26,545.48s9-4.11,12.52-2.86,13.06,5.37,12.85,9.5-15.53,8.71-25.75,3.7S1179.26,545.48,1179.26,545.48Z" transform="translate(-239.42 -262.99)"/><path class="cls-21" d="M1181.93,556.79a6.57,6.57,0,0,1-.64,1.43c-3,4.88-53,5.13-58.68,1-2.55-1.84-3.32-27.1-3.4-54.47-.1-33.85.86-70.92.86-70.92s19.54,9.07,20.5,20.23-7.27,78.23-1.56,82.33,32,4.63,40.81,7.21C1179.82,543.63,1183.55,551.66,1181.93,556.79Z" transform="translate(-239.42 -262.99)"/><path class="cls-16" d="M1131.41,356.92c-3.42-3.56-9-3.89-12.6-4.15a6.19,6.19,0,0,1,2.89-.94c-2.16-.61-7.38.94-7.38.94s-17.45-12-29.28,11.43c0,0,1.72-1.66,4-3.5-6.84,13.47-4.55,35.48,10.72,41.32C1109.73,405.82,1166.42,393.38,1131.41,356.92Z" transform="translate(-239.42 -262.99)"/><path class="cls-20" d="M1120.83,439.45c.1.06-10.55,3.95-17.8.93-6.81-2.85-10.24-12.6-10.14-12.61,3.07-.21,4.47-4.2,6.69-21.87l1.32.44,22.15,7.45s-1.44,7.09-2.33,13.82C1120,433.27,1119.62,438.68,1120.83,439.45Z" transform="translate(-239.42 -262.99)"/><path class="cls-22" d="M1123.05,413.79s-1.44,7.09-2.33,13.82c-12.68-2-17.9-14.48-19.82-21.27Z" transform="translate(-239.42 -262.99)"/><path class="cls-16" d="M1098.87,403.56s-5.3-11.4-5.73-20.61c-.31-6.58,6.06-30,29.57-23.46a32.89,32.89,0,0,1,12.83,6.85c4.75,4.19,11.27,12.75.18,32.46l-3.09,6.74Z" transform="translate(-239.42 -262.99)"/><path class="cls-20" d="M1126.47,420.72s-30.16-3.41-27.75-22.16.14-31.82,19.5-30.44,22.18,9,22.89,15.47S1134.38,421.12,1126.47,420.72Z" transform="translate(-239.42 -262.99)"/><path class="cls-3" d="M1128.45,463.19c-.25-2.21,4.47-3.23,5.33-1.18,1.6,3.83,1.43,8.38,1.79,12.07,1,10.53-3.14,24.22-3.14,24.22Z" transform="translate(-239.42 -262.99)"/><path class="cls-16" d="M1141.57,373.05c-3.91-6.23-7.59-5.46-9.78-4-5.24-10.56-27.62.83-27.62.83a36.08,36.08,0,0,1-14.46,19.64s5,4.1,18.12,2.49c10.28-1.27,19.34-14.5,22.74-20.08,1.58,1.83,4.88,6,5.54,9.74.89,5,.29,14.88,3.19,14.92C1139.3,396.56,1147.45,382.42,1141.57,373.05Z" transform="translate(-239.42 -262.99)"/><path class="cls-7" d="M1121.26,408.49s.25,2.45,6.22,2.85c0,0,5,.34,5.2-2.3C1132.68,409,1128.1,406.55,1121.26,408.49Z" transform="translate(-239.42 -262.99)"/><path class="cls-3" d="M1181.93,556.79a6.57,6.57,0,0,1-.64,1.43c-3,4.88-53,5.13-58.68,1-2.55-1.84-3.37-33.23,3.66-60.31,1.67,16.22-1.39,48.66,7.1,51.3C1143,553.25,1169.29,553.31,1181.93,556.79Z" transform="translate(-239.42 -262.99)"/><path class="cls-21" d="M1134.11,499.8c-19.83,57.22-10.79,67.58-17.87,72.54,0,0-6,1.71-6,1.74-7.35,4.87-6.61-2.09-28.54,4.22-10.45,3-23.87,7-35.38,9a70,70,0,0,1-11.93,1.11c-6.78-.08-11.6-1.89-12.64-6.61-3-13.71,24.13-45.55,21.55-70l-.06-.63a26.34,26.34,0,0,1,.64-7.11c2.78-13.1,13.64-31.26,24.43-46.57,11.91-16.89,23.75-30.3,24.57-29.66,23.29,18.25,27.18,6.09,27.18,6.09S1140.87,480.28,1134.11,499.8Z" transform="translate(-239.42 -262.99)"/><path class="cls-3" d="M1112.36,573.51s.05,0,0,0c-7.35,4.88-8.72-1.52-30.65,4.79-10.45,3-23.87,7-35.38,9-5.79.26-10.11.58-11.93,1.11-6.78-.08-11.6-1.89-12.64-6.61-3-13.71,24.13-45.55,21.55-70l-.06-.63a22.48,22.48,0,0,1,.64-7.11c2.5-9.9,11.32-19.86,21.76-34.67,4.84,6.65,47.83,5.24,30.29,62.47C1090.56,549.34,1111.55,559.25,1112.36,573.51Z" transform="translate(-239.42 -262.99)"/><path class="cls-20" d="M1109.93,576.24s9.57-1,13.59,1.28,12,7.78,10.85,10-11.32,2.21-15.26-.7-7.47-.33-12.44-2.73S1109.93,576.24,1109.93,576.24Z" transform="translate(-239.42 -262.99)"/><path class="cls-21" d="M1092.89,427.77s-34.29-4-42.56,11.74-13.92,74-7.21,92.64,54.61,48.82,60.15,50.5,10.21-6.59,10.09-7.57-47.84-51.07-47-55.52S1092.89,427.77,1092.89,427.77Z" transform="translate(-239.42 -262.99)"/></g><polygon class="cls-20" points="1999.02 1313.69 1986.78 1365.28 1968.43 1365.17 1967.76 1313.69 1999.02 1313.69"/><polygon class="cls-20" points="1844.7 1315.89 1809.85 1365.28 1796.27 1347.84 1817.24 1309.1 1844.7 1315.89"/><path class="cls-16" d="M2174.72,898.79c6.34-3.6,13.93-4,19.24-3.68a9,9,0,0,0-4.06-1.92c3.29-.49,10.64,2.77,10.64,2.77,45.79-17.64,53,49.78,52,65.45s15.39,20.78,39.21,33.12c45.46,23.55,49.45,55.08,49.45,55.08-.35.21-.72.45-1.12.72-2.25-3.82-6.89-11-10.81-12.08.15.35,4.63,9.88,6.3,15.34-13.41,10.2-38.5,32.8-56,48.83.07-3.13,0-7.58-1.19-9.93l-2.16,13c-9.36,8.6-15.81,14.65-15.81,14.65,1.15-12.66-57.25-79.46-87.73-99.46-7.41-10.92-10.05-30.22-10.25-31.74,1.28,15.3,3.9,23.88,6.24,28.71C2142.91,993.91,2157.94,908.33,2174.72,898.79Z" transform="translate(-239.42 -262.99)"/><path class="cls-20" d="M2174.54,1021.68c-.15.07,14.71,7.79,25.89,4.73,10.52-2.87,17.39-16.51,17.25-16.54-4.46-.88-5.74-7-5.65-33.3l-2,.39-33.86,6.71s.77,10.65.8,20.69C2177,1012.79,2176.47,1020.78,2174.54,1021.68Z" transform="translate(-239.42 -262.99)"/><path class="cls-22" d="M2176.16,983.67s.77,10.65.8,20.69c18.94-.53,29-17.82,33.06-27.4Z" transform="translate(-239.42 -262.99)"/><path class="cls-16" d="M2213.52,973.28s9.93-15.69,12.31-29.11c1.7-9.57-3.18-45.07-38.85-40a48.45,48.45,0,0,0-20.1,7.6c-7.75,5.23-18.92,16.52-6.43,47.5l3.25,10.47Z" transform="translate(-239.42 -262.99)"/><path class="cls-23" d="M2041.22,1597.29l17.94.55,19.43.59s44.87-50,70-130c.59-1.86,1.21-3.75,1.86-5.65,13.78-40.17,42.33-90.59,57.38-136.22,2.4-7.27,4.55-14.11,6.48-20.59.61-2.07,1.22-4.11,1.79-6.11,11.09-38.54,14.3-63.84,17.26-90.87l-108.67.87S2107.19,1394.4,2041.22,1597.29Z" transform="translate(-239.42 -262.99)"/><path class="cls-24" d="M2140,1147.38c.27,51.71-7.59,73.9-7.59,73.9s46.53,23.64,101.83,6.24c.65-.21,41.58-8.42,41.58-8.42-.92-2.1-12.21-37.87-13.12-39.79-11.67-25.07-13.27-37.23-14.66-44.94-2.57-14.39-2.62-29.28-1.34-43.32a347.72,347.72,0,0,1,13.4-68c-15.06-3.43-29.17-9.45-44.85-15.33-3.61,4.49-14.64,9.19-24.2,9-11-.24-14.59-5-14-10.1-11.74,6.53-21.1,12.7-21.1,12.7-10,17.33-30.21,34.15-31.68,60.74C2123.84,1086.53,2139.94,1145.93,2140,1147.38Z" transform="translate(-239.42 -262.99)"/><path class="cls-5" d="M2076.86,1070.56c15.95-18.63,57.28-59,99.93-64l-36.8,71.69s-2.07,12.29-13,19.45c-26.7,17.55-60.64,25.3-60.64,25.3s-23-10-54.4-33c-9.87-7.23-27.2-34.79-27.2-34.79l4.68-15.65s29.42,16.46,39.93,21.2c6,2.7,19.78,9.16,29.5,13.72A15.15,15.15,0,0,0,2076.86,1070.56Z" transform="translate(-239.42 -262.99)"/><path class="cls-20" d="M2169.84,993.17s44.82.74,44.85-27.18,5.84-46.63-22.78-48.29-34.19,9-36.47,18.32S2158.18,992.26,2169.84,993.17Z" transform="translate(-239.42 -262.99)"/><path class="cls-16" d="M2171.49,917s12.28,32.76,31.11,37.6,27-.2,27-.2a53.35,53.35,0,0,1-17.45-31.51S2180.75,901.43,2171.49,917Z" transform="translate(-239.42 -262.99)"/><path class="cls-16" d="M2174.54,919.68s-9.17,7.31-11.4,14.42-3.24,21.75-7.51,21.25c0,0-9.25-22.26,1.14-34.86C2167.79,907.14,2174.54,919.68,2174.54,919.68Z" transform="translate(-239.42 -262.99)"/><path class="cls-20" d="M1989.46,1039.51s-6.32-22.77-31.36-19.55c-2.87.9-11.27,4.25-5.9,13.23,4,6.63,5.66,3.21,11.89,12.12s13,10.91,20.69,9.85Z" transform="translate(-239.42 -262.99)"/><path class="cls-20" d="M2226.81,1625.38a49.63,49.63,0,0,0,2.34,21.15s3,13.68-10.48,13.94-16.78-1-15.25-9.41,4.43-22.9,4.43-22.9Z" transform="translate(-239.42 -262.99)"/><path class="cls-8" d="M2202.15,1666.31a8.72,8.72,0,0,0,.84.45h26.38a5.49,5.49,0,0,0,.74-.45c1.53-6.86-1-19.78-1-19.78-15.26,14-24.81-.35-24.81-.35C2201.86,1652.16,2202.15,1666.31,2202.15,1666.31Z" transform="translate(-239.42 -262.99)"/><path class="cls-20" d="M2003.22,1652.43s24.84-27.57,32.47-41.6l18.47,9.46-41.3,38.78-9.66-1.27Z" transform="translate(-239.42 -262.99)"/><path class="cls-8" d="M1987.8,1666.76h34c3.27-2.45,6.33-8.11,10.13-15.71,2-4,6.58-6.29,11.25-7.52v23h7l6.68-24.41c4.39-8.09.35-15.42-2.75-21.8-3.6,0-13.28,2.45-31.64,23.13-6,6.79-12.69,9.22-19.3,9a1.46,1.46,0,0,1-.28.14C1991.87,1657.55,1988.71,1663.74,1987.8,1666.76Z" transform="translate(-239.42 -262.99)"/><path class="cls-5" d="M2177,1006.56s-25.93,64.07-26.7,77-3.05,212-3.05,212,1.53,9.15-16,5.34-22.11-7.63-22.11-7.63,16.78-122.8,12.2-165.51,35.08-112.38,35.08-112.38Z" transform="translate(-239.42 -262.99)"/><path class="cls-13" d="M2059.16,1597.84l19.43.59s44.87-50,70-130c.59-1.86,1.21-3.75,1.86-5.65,13.78-40.17,42.33-90.59,57.38-136.22,2.4-7.27,4.55-14.11,6.48-20.59.61-2.07,1.22-4.11,1.79-6.11l-16-12.15s-48,77.8-62.92,151C2124.3,1502.28,2072.56,1578.81,2059.16,1597.84Z" transform="translate(-239.42 -262.99)"/><path class="cls-23" d="M2198.47,1445.51c-.28,35.6,1.52,117.46,6.16,151.34h17.21c9.51,0,14.25-.13,14.25-.13C2247.72,1537.8,2256,1489,2262,1447c4.95-34.47,9.34-64,12.72-89.47,3.4-25.61,5.77-47,6.61-65.16.13-2.86.23-5.63.28-8.33s.07-5.34,0-7.89l-93.89-9.15C2189,1329.41,2198.62,1424.81,2198.47,1445.51Z" transform="translate(-239.42 -262.99)"/><path class="cls-13" d="M2221.84,1596.85c9.51,0,14.25-.13,14.25-.13C2247.72,1537.8,2256,1489,2262,1447c4.95-34.47,9.34-64,12.72-89.47,3.4-25.61,5.77-47,6.61-65.16l-34.45,20.26s22,7.76,13.6,66.49S2233.51,1588.54,2221.84,1596.85Z" transform="translate(-239.42 -262.99)"/><path class="cls-5" d="M2217.4,1291.82s6.62,23.89,29.5,20.84,55.42-16.78,55.42-16.78-9.78-30.9-21.94-71.49c-14.72-49.14-32.94-112.49-41.53-152.45a247.31,247.31,0,0,1-4.67-27.25l-19-36.83s-28.31,63.53-29.83,79.55S2217.4,1291.82,2217.4,1291.82Z" transform="translate(-239.42 -262.99)"/><path class="cls-14" d="M2218.42,1121c1,25.93,7.12,76.27,61.53,103.22l.43.2c-14.72-49.14-32.94-112.49-41.53-152.45C2228.86,1086.87,2217.86,1106.69,2218.42,1121Z" transform="translate(-239.42 -262.99)"/><rect class="cls-23" x="1925.86" y="904.01" width="24.27" height="96.5" transform="translate(-345.14 1386.29) rotate(-45)"/><rect class="cls-25" x="2113.83" y="896.22" width="68.78" height="532.53" rx="30.16" transform="translate(-432.22 1596.52) rotate(-45)"/><path class="cls-25" d="M1499.79,514.05c-111.45,111.45-111.45,292.14,0,403.59s292.14,111.45,403.59,0,111.45-292.14,0-403.59S1611.24,402.6,1499.79,514.05Zm381.36,381.36c-99.17,99.17-260,99.17-359.13,0s-99.17-260,0-359.13,260-99.17,359.13,0S1980.32,796.24,1881.15,895.41Z" transform="translate(-239.42 -262.99)"/><path class="cls-20" d="M2240.25,1085l-25.05-77.16c.06,0,31.64,9.4,47.52,17.42,0,0,9.93,12.8,16.08,42.33,0,0,6.49,70.9-8,96.83,0,0-45.76,9.15-119-16v-16.78s80.09,4.2,96.48,6.11Z" transform="translate(-239.42 -262.99)"/><path class="cls-5" d="M2215.2,1007.86s46.44,3.27,57.63,28.19,14.74,107.8.51,132.21c0,0-19.6,5.58-54.27-.91-.43-.07-.86-.16-1.29-.24,0,0-11.06-27.08-1.14-32.41,0,0,29.24,1.52,26.19-8.14S2215.2,1007.86,2215.2,1007.86Z" transform="translate(-239.42 -262.99)"/><path class="cls-20" d="M2160,1136.11s-6.38-7.74-7.74-15.63-5.58-13.75-16.6-15.19-15.74-1.61-15.72,1.5,9,24.77,24.8,37.71S2160,1136.11,2160,1136.11Z" transform="translate(-239.42 -262.99)"/><path class="cls-26" d="M1814,486.34l-340.1,340.1a253.74,253.74,0,0,0,19,32.22l353.33-353.33A253.68,253.68,0,0,0,1814,486.34Z" transform="translate(-239.42 -262.99)"/><path class="cls-26" d="M1790.71,476.25a253.34,253.34,0,0,0-89-16c-140.25,0-253.94,113.7-253.94,253.94a253.25,253.25,0,0,0,16,89Z" transform="translate(-239.42 -262.99)"/><path class="cls-26" d="M1589.27,941.87a252.87,252.87,0,0,0,112.48,26.23c140.25,0,254-113.7,254-254a252.9,252.9,0,0,0-26.23-112.48Z" transform="translate(-239.42 -262.99)"/><path class="cls-27" d="M285.72,1671.36h2577.4a2.31,2.31,0,0,0,2.3-2.3h0a2.31,2.31,0,0,0-2.3-2.3H285.72a2.31,2.31,0,0,0-2.3,2.3h0A2.3,2.3,0,0,0,285.72,1671.36Z" transform="translate(-239.42 -262.99)"/></svg>