<svg xmlns="http://www.w3.org/2000/svg" viewBox="0 0 470.03 442.79"><defs><style>.cls-1,.cls-16,.cls-4{fill:#92e3a9;}.cls-11,.cls-2{fill:#fff;}.cls-2{opacity:0.7;}.cls-10,.cls-17,.cls-3,.cls-5{fill:none;}.cls-11,.cls-12,.cls-13,.cls-16,.cls-17,.cls-18,.cls-19,.cls-20,.cls-3,.cls-4,.cls-5,.cls-6,.cls-8{stroke:#263238;}.cls-10,.cls-14,.cls-3,.cls-4,.cls-5,.cls-6{stroke-miterlimit:10;}.cls-3{stroke-width:2px;}.cls-5{stroke-width:0.5px;}.cls-6,.cls-7,.cls-8{fill:#263238;}.cls-11,.cls-12,.cls-13,.cls-16,.cls-17,.cls-18,.cls-19,.cls-20,.cls-8{stroke-linecap:round;stroke-linejoin:round;}.cls-9{opacity:0.2;}.cls-10{stroke:#000;}.cls-12,.cls-14{fill:#d9d9d9;}.cls-13{fill:#a8a8a8;}.cls-14{stroke:#b5b5b5;}.cls-15{opacity:0.3;}.cls-18{fill:#757575;}.cls-19{fill:#b2b2b2;}.cls-20{fill:#525252;}</style></defs><g id="Background_Simple" data-name="Background Simple"><path class="cls-1" d="M463,210.15S399,54,282,23.89s-166.07,62-184,126S14,298.44,20,356.58c5.7,55.26,54.13,81.39,99.36,92.61,57.49,14.25,122.82,15.33,180.52,3.45a372.84,372.84,0,0,0,40.57-11c27.11-8.84,53.72-15.69,81.18-23,52.24-13.93,72.94-70,67.05-123.74C485.36,264.69,474.29,237.65,463,210.15Z" transform="translate(-19.62 -18)"/><path class="cls-2" d="M463,210.15S399,54,282,23.89s-166.07,62-184,126S14,298.44,20,356.58c5.7,55.26,54.13,81.39,99.36,92.61,57.49,14.25,122.82,15.33,180.52,3.45a372.84,372.84,0,0,0,40.57-11c27.11-8.84,53.72-15.69,81.18-23,52.24-13.93,72.94-70,67.05-123.74C485.36,264.69,474.29,237.65,463,210.15Z" transform="translate(-19.62 -18)"/></g><g id="Plants"><line class="cls-3" x1="29.03" y1="202.72" x2="47.48" y2="379.46"/><line class="cls-3" x1="44.51" y1="345.63" x2="36.15" y2="336.8"/><path class="cls-4" d="M58.3,357.45A9.45,9.45,0,0,0,55,350.36c-2.14-1.92-13.44-6.67-14.51-2.69C39.29,352,50.86,360.49,58.3,357.45Z" transform="translate(-19.62 -18)"/><line class="cls-5" x1="38.69" y1="339.45" x2="27.93" y2="332.75"/><line class="cls-3" x1="46.6" y1="365.73" x2="38.24" y2="356.9"/><path class="cls-4" d="M60.4,377.55a9.45,9.45,0,0,0-3.33-7.09c-2.14-1.92-13.44-6.67-14.51-2.69C41.39,372.09,53,380.59,60.4,377.55Z" transform="translate(-19.62 -18)"/><line class="cls-5" x1="40.78" y1="359.55" x2="30.03" y2="352.85"/><line class="cls-3" x1="39.39" y1="296.59" x2="31.03" y2="287.76"/><path class="cls-4" d="M53.18,308.4a9.47,9.47,0,0,0-3.32-7.09c-2.15-1.92-13.45-6.67-14.52-2.69C34.18,303,45.74,311.44,53.18,308.4Z" transform="translate(-19.62 -18)"/><line class="cls-5" x1="33.57" y1="290.4" x2="22.81" y2="283.7"/><line class="cls-3" x1="41.49" y1="316.69" x2="33.12" y2="307.86"/><path class="cls-4" d="M55.28,328.5A9.46,9.46,0,0,0,52,321.41c-2.14-1.92-13.44-6.67-14.51-2.69C36.27,323.05,47.83,331.54,55.28,328.5Z" transform="translate(-19.62 -18)"/><line class="cls-5" x1="35.66" y1="310.5" x2="24.91" y2="303.8"/><line class="cls-3" x1="35.98" y1="263.94" x2="27.62" y2="255.11"/><path class="cls-4" d="M49.78,275.75a9.5,9.5,0,0,0-3.33-7.09C44.3,266.74,33,262,31.93,266,30.77,270.3,42.33,278.79,49.78,275.75Z" transform="translate(-19.62 -18)"/><line class="cls-5" x1="30.16" y1="257.75" x2="19.41" y2="251.05"/><line class="cls-3" x1="32.56" y1="231.14" x2="24.2" y2="222.31"/><path class="cls-4" d="M46.35,243A9.46,9.46,0,0,0,43,235.87c-2.15-1.92-13.45-6.67-14.52-2.69C27.35,237.5,38.91,246,46.35,243Z" transform="translate(-19.62 -18)"/><line class="cls-5" x1="26.74" y1="224.96" x2="15.98" y2="218.26"/><line class="cls-3" x1="43.1" y1="333.74" x2="49.46" y2="323.37"/><path class="cls-4" d="M67.14,344.49a9.48,9.48,0,0,1,1.79-7.63c1.7-2.32,11.77-9.3,13.64-5.63C84.61,335.22,75.05,345.93,67.14,344.49Z" transform="translate(-19.62 -18)"/><line class="cls-5" x1="47.52" y1="326.49" x2="57.2" y2="317.23"/><line class="cls-3" x1="37.58" y1="280.85" x2="43.94" y2="270.48"/><path class="cls-4" d="M61.62,291.6A9.48,9.48,0,0,1,63.41,284c1.7-2.32,11.77-9.3,13.64-5.63C79.09,282.33,69.53,293,61.62,291.6Z" transform="translate(-19.62 -18)"/><line class="cls-5" x1="42" y1="273.6" x2="51.68" y2="264.34"/><line class="cls-3" x1="35.16" y1="257.6" x2="41.51" y2="247.24"/><path class="cls-4" d="M59.19,268.35A9.48,9.48,0,0,1,61,260.72c1.71-2.31,11.78-9.3,13.65-5.63C76.66,259.09,67.1,269.79,59.19,268.35Z" transform="translate(-19.62 -18)"/><line class="cls-5" x1="39.57" y1="250.35" x2="49.26" y2="241.1"/><line class="cls-3" x1="31.6" y1="223.53" x2="37.96" y2="213.16"/><path class="cls-4" d="M55.63,234.27a9.44,9.44,0,0,1,1.8-7.62c1.7-2.32,11.77-9.3,13.64-5.63C73.1,225,63.55,235.71,55.63,234.27Z" transform="translate(-19.62 -18)"/><line class="cls-5" x1="36.02" y1="216.27" x2="45.7" y2="207.02"/><path class="cls-4" d="M48.5,219.74a9.48,9.48,0,0,1,1.79-7.63c1.7-2.31,11.77-9.3,13.64-5.62C66,210.48,56.41,221.18,48.5,219.74Z" transform="translate(-19.62 -18)"/><line class="cls-5" x1="28.88" y1="201.74" x2="38.56" y2="192.49"/><path class="cls-4" d="M49.06,220.14a9.48,9.48,0,0,1-7.4-2.58c-2.13-1.94-8-12.69-4.17-14.16C41.68,201.79,51.32,212.42,49.06,220.14Z" transform="translate(-19.62 -18)"/><line class="cls-5" x1="29.44" y1="202.14" x2="21.25" y2="191.54"/><line class="cls-3" x1="77.68" y1="227.06" x2="59.34" y2="403.81"/><line class="cls-3" x1="63.4" y1="370.1" x2="57.03" y2="359.73"/><path class="cls-4" d="M78.59,380.85a9.46,9.46,0,0,0-1.8-7.63c-1.7-2.32-11.78-9.29-13.64-5.62C61.11,371.59,70.68,382.29,78.59,380.85Z" transform="translate(-19.62 -18)"/><line class="cls-5" x1="58.97" y1="362.85" x2="49.83" y2="354.07"/><line class="cls-3" x1="68.49" y1="321.05" x2="62.12" y2="310.68"/><path class="cls-4" d="M83.68,331.8a9.46,9.46,0,0,0-1.8-7.63c-1.7-2.32-11.78-9.29-13.64-5.62C66.2,322.54,75.77,333.24,83.68,331.8Z" transform="translate(-19.62 -18)"/><line class="cls-5" x1="64.06" y1="313.8" x2="54.92" y2="305.02"/><line class="cls-3" x1="66.4" y1="341.15" x2="60.04" y2="330.78"/><path class="cls-4" d="M81.59,351.9a9.48,9.48,0,0,0-1.79-7.63C78.09,342,68,335,66.15,338.65,64.12,342.64,73.68,353.34,81.59,351.9Z" transform="translate(-19.62 -18)"/><line class="cls-5" x1="61.98" y1="333.9" x2="52.84" y2="325.13"/><line class="cls-3" x1="71.88" y1="288.39" x2="65.51" y2="278.03"/><path class="cls-4" d="M87.07,299.14a9.44,9.44,0,0,0-1.8-7.62c-1.7-2.32-11.78-9.3-13.65-5.62C69.59,289.89,79.16,300.59,87.07,299.14Z" transform="translate(-19.62 -18)"/><line class="cls-5" x1="67.45" y1="281.14" x2="58.31" y2="272.37"/><line class="cls-3" x1="75.28" y1="255.6" x2="68.91" y2="245.24"/><path class="cls-4" d="M90.47,266.35a9.48,9.48,0,0,0-1.79-7.63C87,256.4,76.89,249.43,75,253.1,73,257.09,82.56,267.79,90.47,266.35Z" transform="translate(-19.62 -18)"/><line class="cls-5" x1="70.86" y1="248.35" x2="61.71" y2="239.58"/><line class="cls-3" x1="64.47" y1="358.17" x2="72.83" y2="349.33"/><path class="cls-4" d="M89.9,370a9.45,9.45,0,0,1,3.33-7.09c2.14-1.92,13.44-6.68,14.51-2.7C108.91,364.51,97.35,373,89.9,370Z" transform="translate(-19.62 -18)"/><line class="cls-5" x1="70.29" y1="351.98" x2="81.67" y2="344.92"/><line class="cls-3" x1="69.96" y1="305.27" x2="78.32" y2="296.44"/><path class="cls-4" d="M95.39,317.09a9.48,9.48,0,0,1,3.33-7.1c2.14-1.92,13.43-6.68,14.51-2.7C114.4,311.62,102.84,320.12,95.39,317.09Z" transform="translate(-19.62 -18)"/><line class="cls-5" x1="75.78" y1="299.09" x2="87.16" y2="292.02"/><line class="cls-3" x1="72.37" y1="282.03" x2="80.73" y2="273.19"/><path class="cls-4" d="M97.81,293.84a9.42,9.42,0,0,1,3.32-7.09c2.14-1.92,13.44-6.68,14.51-2.7C116.81,288.37,105.25,296.88,97.81,293.84Z" transform="translate(-19.62 -18)"/><line class="cls-5" x1="78.19" y1="275.84" x2="89.57" y2="268.78"/><line class="cls-3" x1="75.91" y1="247.95" x2="84.26" y2="239.11"/><path class="cls-4" d="M101.34,259.76a9.45,9.45,0,0,1,3.33-7.09c2.14-1.92,13.43-6.68,14.51-2.7C120.35,254.29,108.79,262.8,101.34,259.76Z" transform="translate(-19.62 -18)"/><line class="cls-5" x1="81.73" y1="241.76" x2="93.11" y2="234.7"/><path class="cls-4" d="M97.35,244.07a9.46,9.46,0,0,1,3.32-7.09c2.15-1.92,13.44-6.68,14.51-2.7C116.35,238.6,104.8,247.11,97.35,244.07Z" transform="translate(-19.62 -18)"/><line class="cls-5" x1="77.73" y1="226.07" x2="89.11" y2="219.01"/><path class="cls-4" d="M97.82,244.58a9.48,9.48,0,0,1-6.71-4.05c-1.68-2.34-5.23-14.07-1.16-14.72C94.37,225.1,101.62,237.49,97.82,244.58Z" transform="translate(-19.62 -18)"/><line class="cls-5" x1="78.2" y1="226.58" x2="72.37" y2="214.52"/><line class="cls-3" x1="56.67" y1="155.09" x2="56.67" y2="378.6"/><line class="cls-3" x1="56.84" y1="344.99" x2="49.44" y2="335.34"/><path class="cls-4" d="M71.31,356.23a9.45,9.45,0,0,0-2.57-7.4c-1.94-2.12-12.68-8-14.16-4.18C53,348.83,63.59,358.49,71.31,356.23Z" transform="translate(-19.62 -18)"/><line class="cls-5" x1="51.7" y1="338.23" x2="41.7" y2="330.45"/><line class="cls-3" x1="56.84" y1="302.99" x2="49.44" y2="293.34"/><path class="cls-4" d="M71.31,314.23a9.45,9.45,0,0,0-2.57-7.4c-1.94-2.13-12.68-8-14.16-4.18C53,306.83,63.59,316.48,71.31,314.23Z" transform="translate(-19.62 -18)"/><line class="cls-5" x1="51.7" y1="296.23" x2="41.7" y2="288.45"/><line class="cls-3" x1="56.84" y1="253.67" x2="49.44" y2="244.02"/><path class="cls-4" d="M71.31,264.92a9.45,9.45,0,0,0-2.57-7.4c-1.94-2.13-12.68-8-14.16-4.18C53,257.52,63.59,267.17,71.31,264.92Z" transform="translate(-19.62 -18)"/><line class="cls-5" x1="51.7" y1="246.92" x2="41.7" y2="239.14"/><line class="cls-3" x1="56.84" y1="220.85" x2="49.44" y2="211.19"/><path class="cls-4" d="M71.31,232.09a9.45,9.45,0,0,0-2.57-7.4c-1.94-2.13-12.68-8-14.16-4.18C53,224.69,63.59,234.34,71.31,232.09Z" transform="translate(-19.62 -18)"/><line class="cls-5" x1="51.7" y1="214.09" x2="41.7" y2="206.31"/><line class="cls-3" x1="56.84" y1="187.88" x2="49.44" y2="178.22"/><path class="cls-4" d="M71.31,199.12a9.45,9.45,0,0,0-2.57-7.4c-1.94-2.13-12.68-8-14.16-4.18C53,191.72,63.59,201.37,71.31,199.12Z" transform="translate(-19.62 -18)"/><line class="cls-5" x1="51.7" y1="181.12" x2="41.7" y2="173.34"/><line class="cls-3" x1="56.68" y1="357.82" x2="64.08" y2="348.16"/><path class="cls-4" d="M81.44,369.06a9.48,9.48,0,0,1,2.58-7.4c1.93-2.13,12.67-8,14.15-4.18C99.78,361.66,89.16,371.31,81.44,369.06Z" transform="translate(-19.62 -18)"/><line class="cls-5" x1="61.83" y1="351.06" x2="72.42" y2="342.86"/><line class="cls-3" x1="56.68" y1="291.01" x2="64.08" y2="281.36"/><path class="cls-4" d="M81.44,302.26a9.48,9.48,0,0,1,2.58-7.4c1.93-2.13,12.67-8,14.15-4.18C99.78,294.86,89.16,304.51,81.44,302.26Z" transform="translate(-19.62 -18)"/><line class="cls-5" x1="61.83" y1="284.26" x2="72.42" y2="276.06"/><line class="cls-3" x1="56.68" y1="258.04" x2="64.08" y2="248.39"/><path class="cls-4" d="M81.44,269.29a9.48,9.48,0,0,1,2.58-7.4c1.93-2.13,12.67-8,14.15-4.19C99.78,261.89,89.16,271.54,81.44,269.29Z" transform="translate(-19.62 -18)"/><line class="cls-5" x1="61.83" y1="251.29" x2="72.42" y2="243.09"/><line class="cls-3" x1="56.68" y1="214.46" x2="64.08" y2="204.81"/><path class="cls-4" d="M81.44,225.71a9.48,9.48,0,0,1,2.58-7.4c1.93-2.13,12.67-8,14.15-4.19C99.78,218.31,89.16,228,81.44,225.71Z" transform="translate(-19.62 -18)"/><line class="cls-5" x1="61.83" y1="207.71" x2="72.42" y2="199.51"/><line class="cls-3" x1="56.68" y1="180.2" x2="64.08" y2="170.55"/><path class="cls-4" d="M81.44,191.45a9.47,9.47,0,0,1,2.58-7.4c1.93-2.13,12.67-8,14.15-4.19C99.78,184.05,89.16,193.7,81.44,191.45Z" transform="translate(-19.62 -18)"/><line class="cls-5" x1="61.83" y1="173.45" x2="72.42" y2="165.25"/><path class="cls-4" d="M75.85,176.25a9.48,9.48,0,0,1,2.58-7.4c1.93-2.13,12.67-8,14.15-4.18C94.19,168.85,83.57,178.5,75.85,176.25Z" transform="translate(-19.62 -18)"/><line class="cls-5" x1="56.24" y1="158.25" x2="66.83" y2="150.05"/><path class="cls-4" d="M76.37,176.71a9.48,9.48,0,0,1-7.09-3.34c-1.91-2.15-6.65-13.45-2.67-14.52C70.93,157.69,79.42,169.26,76.37,176.71Z" transform="translate(-19.62 -18)"/><line class="cls-5" x1="56.75" y1="158.71" x2="49.71" y2="147.31"/><polygon class="cls-6" points="65.86 436.56 42.19 436.56 39.23 376.79 68.82 376.79 65.86 436.56"/><path class="cls-1" d="M379.34,315.42a13.23,13.23,0,0,1,1.51-5.53c1.38-2.27,6.41-3.9,9.06-2.77a35.14,35.14,0,0,1,3.9,1.89,29.77,29.77,0,0,0-7.43,3.52A18.59,18.59,0,0,1,379.34,315.42Z" transform="translate(-19.62 -18)"/><path class="cls-1" d="M374.05,317.06a13,13,0,0,0,3.53-6.92c.5-4-3.78,1.68-3.78,1.68s-2.14-8.1-3.39-3.57S374.05,317.06,374.05,317.06Z" transform="translate(-19.62 -18)"/><path class="cls-1" d="M368.27,315.8s.75-3.77-.63-6.41-5-2.39-8.68-1.26a20.55,20.55,0,0,1-4.78,1.13,54.18,54.18,0,0,0,7.92,4.4A49.08,49.08,0,0,0,368.27,315.8Z" transform="translate(-19.62 -18)"/><path class="cls-7" d="M374,329.36a.33.33,0,0,0,.33-.33V311a.32.32,0,0,0-.33-.32.32.32,0,0,0-.32.32v18A.32.32,0,0,0,374,329.36Z" transform="translate(-19.62 -18)"/><path class="cls-7" d="M372.51,329.36h.05a.33.33,0,0,0,.27-.37c-.06-.45-1.58-11.11-6.74-17a.33.33,0,0,0-.46,0,.32.32,0,0,0,0,.46c5,5.77,6.57,16.58,6.59,16.69A.32.32,0,0,0,372.51,329.36Z" transform="translate(-19.62 -18)"/><path class="cls-7" d="M375.53,329.11h0a.34.34,0,0,0,.33-.33c0-.11-.05-10.35,6-15.22a.33.33,0,1,0-.41-.51c-6.34,5.08-6.29,15.3-6.29,15.74A.34.34,0,0,0,375.53,329.11Z" transform="translate(-19.62 -18)"/><path class="cls-7" d="M370.5,329h.08a.32.32,0,0,0,.23-.4,20.86,20.86,0,0,0-2.94-6.14.33.33,0,0,0-.46-.08.34.34,0,0,0-.07.46,20.25,20.25,0,0,1,2.84,5.93A.32.32,0,0,0,370.5,329Z" transform="translate(-19.62 -18)"/><path class="cls-1" d="M368.52,324s.12-3.52-1.39-4-2.89.76-4,1.51-2.39,1.51-2.39,3.78a42.4,42.4,0,0,0,.88,6.41s1.26-3.9,3.4-5.66A8.8,8.8,0,0,1,368.52,324Z" transform="translate(-19.62 -18)"/><path class="cls-7" d="M377.8,329.11a.34.34,0,0,0,.31-.23,11.39,11.39,0,0,1,3.28-4.87.33.33,0,1,0-.4-.52,12,12,0,0,0-3.5,5.19.32.32,0,0,0,.21.41Z" transform="translate(-19.62 -18)"/><path class="cls-1" d="M379.34,325.11a5.2,5.2,0,0,1,.75-3.9c1.26-1.63,4.28-1.26,5.79.5s3.65,7.05,3.65,7.05a12,12,0,0,0-6.54-2.39C379.46,326.37,379.34,325.11,379.34,325.11Z" transform="translate(-19.62 -18)"/><polygon class="cls-8" points="349.7 330.39 359.74 330.39 364.76 313.79 344.68 313.79 349.7 330.39"/><rect class="cls-8" x="364.24" y="329.03" width="20.19" height="2.75" transform="translate(729.05 642.82) rotate(180)"/></g><g id="Graphics"><g class="cls-9"><path d="M382.26,279.49a.94.94,0,0,1-.7-1.28l.05-.13a.94.94,0,0,1,1.3-.57,11.1,11.1,0,0,1,2.31,1.22,11,11,0,0,1-.44-2.66,1,1,0,0,1,1-1.06h.14a1,1,0,0,1,1,1.06,11.45,11.45,0,0,1-.43,2.66,12.14,12.14,0,0,1,2.3-1.22.93.93,0,0,1,1.3.59l0,.09a.93.93,0,0,1-.68,1.3,11.36,11.36,0,0,1-2.57.38,10.86,10.86,0,0,1,1.92,1.81,1,1,0,0,1-.16,1.41l-.11.09a.94.94,0,0,1-1.44-.28,12.13,12.13,0,0,1-1.19-2.35,13.26,13.26,0,0,1-1.22,2.35.94.94,0,0,1-1.44.28l-.1-.09a1,1,0,0,1-.17-1.41,12.72,12.72,0,0,1,1.93-1.84A10.25,10.25,0,0,1,382.26,279.49Z" transform="translate(-19.62 -18)"/><path d="M392.4,279.49a.94.94,0,0,1-.7-1.28l.05-.13a.94.94,0,0,1,1.3-.57,11.1,11.1,0,0,1,2.31,1.22,11,11,0,0,1-.44-2.66,1,1,0,0,1,1-1.06H396a1,1,0,0,1,1,1.06,11.45,11.45,0,0,1-.43,2.66,12.14,12.14,0,0,1,2.3-1.22,1,1,0,0,1,1.31.59l0,.09a.93.93,0,0,1-.68,1.3,11.36,11.36,0,0,1-2.57.38,10.86,10.86,0,0,1,1.92,1.81,1,1,0,0,1-.16,1.41l-.11.09a.93.93,0,0,1-1.43-.28,11.57,11.57,0,0,1-1.2-2.35,13.26,13.26,0,0,1-1.22,2.35.94.94,0,0,1-1.44.28l-.1-.09a1,1,0,0,1-.17-1.41,12.72,12.72,0,0,1,1.93-1.84A10.25,10.25,0,0,1,392.4,279.49Z" transform="translate(-19.62 -18)"/><path d="M402.54,279.49a1,1,0,0,1-.7-1.28l.05-.13a.94.94,0,0,1,1.3-.57,11.1,11.1,0,0,1,2.31,1.22,11,11,0,0,1-.43-2.66,1,1,0,0,1,1-1.06h.14a1,1,0,0,1,1,1.06,11.45,11.45,0,0,1-.43,2.66,12.14,12.14,0,0,1,2.3-1.22,1,1,0,0,1,1.31.59l0,.09a.93.93,0,0,1-.67,1.3,11.54,11.54,0,0,1-2.58.38,10.86,10.86,0,0,1,1.92,1.81,1,1,0,0,1-.16,1.41l-.11.09a.93.93,0,0,1-1.43-.28,12.1,12.1,0,0,1-1.2-2.35,13.26,13.26,0,0,1-1.22,2.35.93.93,0,0,1-1.43.28l-.11-.09a1,1,0,0,1-.17-1.41,12.72,12.72,0,0,1,1.93-1.84A10.25,10.25,0,0,1,402.54,279.49Z" transform="translate(-19.62 -18)"/><path d="M412.68,279.49a1,1,0,0,1-.7-1.28l0-.13a.94.94,0,0,1,1.3-.57,11.1,11.1,0,0,1,2.31,1.22,11.45,11.45,0,0,1-.43-2.66,1,1,0,0,1,1-1.06h.14a1,1,0,0,1,1,1.06,11.45,11.45,0,0,1-.43,2.66,12.14,12.14,0,0,1,2.3-1.22,1,1,0,0,1,1.31.59l0,.09a.93.93,0,0,1-.67,1.3,11.54,11.54,0,0,1-2.58.38,10.86,10.86,0,0,1,1.92,1.81,1,1,0,0,1-.16,1.41l-.11.09a.93.93,0,0,1-1.43-.28,12.1,12.1,0,0,1-1.2-2.35A13.26,13.26,0,0,1,415,282.9a.93.93,0,0,1-1.43.28l-.11-.09a1,1,0,0,1-.17-1.41,12.72,12.72,0,0,1,1.93-1.84A10.25,10.25,0,0,1,412.68,279.49Z" transform="translate(-19.62 -18)"/><path d="M422.82,279.49a1,1,0,0,1-.7-1.28l.05-.13a1,1,0,0,1,1.31-.57,11.3,11.3,0,0,1,2.3,1.22,11.45,11.45,0,0,1-.43-2.66,1,1,0,0,1,1-1.06h.14a1,1,0,0,1,1,1.06,11.45,11.45,0,0,1-.43,2.66,12.14,12.14,0,0,1,2.3-1.22,1,1,0,0,1,1.31.59l0,.09a.93.93,0,0,1-.67,1.3,11.54,11.54,0,0,1-2.58.38,10.86,10.86,0,0,1,1.92,1.81,1,1,0,0,1-.16,1.41l-.11.09a.93.93,0,0,1-1.43-.28,12.1,12.1,0,0,1-1.2-2.35,13.26,13.26,0,0,1-1.22,2.35.93.93,0,0,1-1.43.28l-.11-.09a.94.94,0,0,1-.16-1.41,12.16,12.16,0,0,1,1.92-1.84A10.25,10.25,0,0,1,422.82,279.49Z" transform="translate(-19.62 -18)"/><path d="M433,279.49a1,1,0,0,1-.7-1.28l.05-.13a1,1,0,0,1,1.31-.57,11.3,11.3,0,0,1,2.3,1.22,11.45,11.45,0,0,1-.43-2.66,1,1,0,0,1,1-1.06h.14a1,1,0,0,1,1,1.06,11.45,11.45,0,0,1-.43,2.66,11.9,11.9,0,0,1,2.31-1.22.94.94,0,0,1,1.3.59l0,.09a.93.93,0,0,1-.67,1.3,11.45,11.45,0,0,1-2.58.38,11.31,11.31,0,0,1,1.93,1.81,1,1,0,0,1-.17,1.41l-.11.09a.93.93,0,0,1-1.43-.28,12.1,12.1,0,0,1-1.2-2.35,13.26,13.26,0,0,1-1.22,2.35.93.93,0,0,1-1.43.28l-.11-.09a.94.94,0,0,1-.16-1.41,12.16,12.16,0,0,1,1.92-1.84A10.25,10.25,0,0,1,433,279.49Z" transform="translate(-19.62 -18)"/><path d="M443.11,279.49a1,1,0,0,1-.71-1.28l.05-.13a1,1,0,0,1,1.31-.57,11.3,11.3,0,0,1,2.3,1.22,11.45,11.45,0,0,1-.43-2.66,1,1,0,0,1,1-1.06h.14a1,1,0,0,1,1,1.06,11,11,0,0,1-.44,2.66,11.9,11.9,0,0,1,2.31-1.22.94.94,0,0,1,1.3.59l0,.09a.93.93,0,0,1-.68,1.3,11.45,11.45,0,0,1-2.58.38,11.31,11.31,0,0,1,1.93,1.81,1,1,0,0,1-.17,1.41l-.1.09a.94.94,0,0,1-1.44-.28,11.59,11.59,0,0,1-1.19-2.35,13.22,13.22,0,0,1-1.23,2.35.93.93,0,0,1-1.43.28l-.11-.09a.94.94,0,0,1-.16-1.41,12.16,12.16,0,0,1,1.92-1.84A10.1,10.1,0,0,1,443.11,279.49Z" transform="translate(-19.62 -18)"/><path d="M453.25,279.49a1,1,0,0,1-.71-1.28l0-.13a1,1,0,0,1,1.31-.57,11.3,11.3,0,0,1,2.3,1.22,11.45,11.45,0,0,1-.43-2.66,1,1,0,0,1,1-1.06h.14a1,1,0,0,1,1,1.06,11,11,0,0,1-.44,2.66,11.9,11.9,0,0,1,2.31-1.22.94.94,0,0,1,1.3.59l0,.09a.93.93,0,0,1-.68,1.3,11.45,11.45,0,0,1-2.58.38,11.31,11.31,0,0,1,1.93,1.81,1,1,0,0,1-.17,1.41l-.11.09a.93.93,0,0,1-1.43-.28,11.59,11.59,0,0,1-1.19-2.35,13.22,13.22,0,0,1-1.23,2.35.93.93,0,0,1-1.43.28l-.11-.09a.94.94,0,0,1-.16-1.41,12.16,12.16,0,0,1,1.92-1.84A10.1,10.1,0,0,1,453.25,279.49Z" transform="translate(-19.62 -18)"/></g><g class="cls-9"><path d="M182.79,55a.94.94,0,0,1-.71-1.27l.06-.14a.94.94,0,0,1,1.3-.57,11.83,11.83,0,0,1,2.3,1.22,11.45,11.45,0,0,1-.43-2.66.94.94,0,0,1,1-1.05h.13a1,1,0,0,1,1,1.05,11,11,0,0,1-.44,2.66A12.47,12.47,0,0,1,189.27,53a.94.94,0,0,1,1.3.6l0,.08a.93.93,0,0,1-.68,1.3,11.36,11.36,0,0,1-2.58.38,11,11,0,0,1,1.93,1.82,1,1,0,0,1-.16,1.41l-.11.08a1,1,0,0,1-1.44-.27A12,12,0,0,1,186.37,56a13.76,13.76,0,0,1-1.22,2.36,1,1,0,0,1-1.44.27l-.11-.08a1,1,0,0,1-.16-1.41,12.18,12.18,0,0,1,1.92-1.85A10.17,10.17,0,0,1,182.79,55Z" transform="translate(-19.62 -18)"/><path d="M192.93,55a.94.94,0,0,1-.71-1.27l.06-.14a.94.94,0,0,1,1.3-.57,11.55,11.55,0,0,1,2.3,1.22,11.45,11.45,0,0,1-.43-2.66.94.94,0,0,1,1-1.05h.13a.94.94,0,0,1,1,1.05,11,11,0,0,1-.44,2.66A12.47,12.47,0,0,1,199.41,53a.94.94,0,0,1,1.3.6l0,.08a.93.93,0,0,1-.68,1.3,11.36,11.36,0,0,1-2.58.38,11,11,0,0,1,1.93,1.82,1,1,0,0,1-.16,1.41l-.11.08a1,1,0,0,1-1.44-.27A12,12,0,0,1,196.51,56a13.76,13.76,0,0,1-1.22,2.36,1,1,0,0,1-1.44.27l-.11-.08a1,1,0,0,1-.16-1.41,12.63,12.63,0,0,1,1.92-1.85A10.17,10.17,0,0,1,192.93,55Z" transform="translate(-19.62 -18)"/><path d="M203.07,55a.94.94,0,0,1-.71-1.27l.06-.14a.94.94,0,0,1,1.3-.57,11.55,11.55,0,0,1,2.3,1.22,11.45,11.45,0,0,1-.43-2.66.94.94,0,0,1,1-1.05h.13a.94.94,0,0,1,1,1.05,11,11,0,0,1-.44,2.66A12.47,12.47,0,0,1,209.55,53a.94.94,0,0,1,1.3.6l0,.08a.93.93,0,0,1-.68,1.3,11.36,11.36,0,0,1-2.58.38,11,11,0,0,1,1.93,1.82,1,1,0,0,1-.16,1.41l-.11.08a1,1,0,0,1-1.44-.27A12,12,0,0,1,206.65,56a13.76,13.76,0,0,1-1.22,2.36,1,1,0,0,1-1.44.27l-.11-.08a1,1,0,0,1-.16-1.41,12.63,12.63,0,0,1,1.92-1.85A10.17,10.17,0,0,1,203.07,55Z" transform="translate(-19.62 -18)"/><path d="M213.21,55a.94.94,0,0,1-.71-1.27l.06-.14a.94.94,0,0,1,1.3-.57,11.55,11.55,0,0,1,2.3,1.22,11.45,11.45,0,0,1-.43-2.66.94.94,0,0,1,1-1.05h.13a.94.94,0,0,1,1,1.05,11,11,0,0,1-.44,2.66A12.47,12.47,0,0,1,219.69,53a.94.94,0,0,1,1.3.6l0,.08a.93.93,0,0,1-.68,1.3,11.36,11.36,0,0,1-2.58.38,11,11,0,0,1,1.93,1.82,1,1,0,0,1-.16,1.41l-.11.08A1,1,0,0,1,218,58.4,12,12,0,0,1,216.79,56a13.76,13.76,0,0,1-1.22,2.36,1,1,0,0,1-1.44.27l-.11-.08a1,1,0,0,1-.16-1.41,12.63,12.63,0,0,1,1.92-1.85A10.17,10.17,0,0,1,213.21,55Z" transform="translate(-19.62 -18)"/><path d="M223.35,55a.94.94,0,0,1-.71-1.27l.06-.14A.94.94,0,0,1,224,53a11.55,11.55,0,0,1,2.3,1.22,11.45,11.45,0,0,1-.43-2.66.94.94,0,0,1,1-1.05H227a.94.94,0,0,1,1,1.05,11.45,11.45,0,0,1-.43,2.66,12.12,12.12,0,0,1,2.3-1.22.94.94,0,0,1,1.3.6l0,.08a.93.93,0,0,1-.68,1.3,11.36,11.36,0,0,1-2.58.38,11,11,0,0,1,1.93,1.82,1,1,0,0,1-.16,1.41l-.11.08a1,1,0,0,1-1.44-.27A12,12,0,0,1,226.93,56a13.76,13.76,0,0,1-1.22,2.36,1,1,0,0,1-1.44.27l-.11-.08a1,1,0,0,1-.16-1.41,12.28,12.28,0,0,1,1.93-1.85A10.18,10.18,0,0,1,223.35,55Z" transform="translate(-19.62 -18)"/><path d="M233.49,55a1,1,0,0,1-.71-1.27l.06-.14a.94.94,0,0,1,1.3-.57,11.88,11.88,0,0,1,2.31,1.22,11,11,0,0,1-.44-2.66.94.94,0,0,1,1-1.05h.13a.94.94,0,0,1,1,1.05,11.45,11.45,0,0,1-.43,2.66A12.42,12.42,0,0,1,240,53a.94.94,0,0,1,1.3.6l0,.08a.93.93,0,0,1-.68,1.3,11.36,11.36,0,0,1-2.57.38A11.24,11.24,0,0,1,240,57.18a1,1,0,0,1-.16,1.41l-.11.08a1,1,0,0,1-1.44-.27A12,12,0,0,1,237.07,56a13.76,13.76,0,0,1-1.22,2.36,1,1,0,0,1-1.44.27l-.11-.08a1,1,0,0,1-.16-1.41,12.28,12.28,0,0,1,1.93-1.85A10.18,10.18,0,0,1,233.49,55Z" transform="translate(-19.62 -18)"/><path d="M243.63,55a.93.93,0,0,1-.7-1.27l0-.14a.94.94,0,0,1,1.3-.57,11.88,11.88,0,0,1,2.31,1.22,11,11,0,0,1-.44-2.66,1,1,0,0,1,1-1.05h.13a.94.94,0,0,1,1,1.05,11.45,11.45,0,0,1-.43,2.66,12.42,12.42,0,0,1,2.3-1.22.94.94,0,0,1,1.3.6l0,.08a.93.93,0,0,1-.68,1.3,11.36,11.36,0,0,1-2.57.38,11.24,11.24,0,0,1,1.92,1.82,1,1,0,0,1-.16,1.41l-.11.08a1,1,0,0,1-1.44-.27A12,12,0,0,1,247.21,56,13.76,13.76,0,0,1,246,58.4a1,1,0,0,1-1.44.27l-.11-.08a1,1,0,0,1-.16-1.41,12.28,12.28,0,0,1,1.93-1.85A10.18,10.18,0,0,1,243.63,55Z" transform="translate(-19.62 -18)"/><path d="M253.77,55a.93.93,0,0,1-.7-1.27l.05-.14a.94.94,0,0,1,1.3-.57,11.88,11.88,0,0,1,2.31,1.22,11,11,0,0,1-.44-2.66.94.94,0,0,1,1-1.05h.13a.94.94,0,0,1,1,1.05,11.45,11.45,0,0,1-.43,2.66,12.42,12.42,0,0,1,2.3-1.22.94.94,0,0,1,1.3.6l0,.08a.93.93,0,0,1-.68,1.3,11.36,11.36,0,0,1-2.57.38,11.24,11.24,0,0,1,1.92,1.82,1,1,0,0,1-.16,1.41l-.11.08a1,1,0,0,1-1.44-.27A12,12,0,0,1,257.35,56a13.76,13.76,0,0,1-1.22,2.36,1,1,0,0,1-1.44.27l-.11-.08a1,1,0,0,1-.16-1.41,12.28,12.28,0,0,1,1.93-1.85A10.18,10.18,0,0,1,253.77,55Z" transform="translate(-19.62 -18)"/></g><g class="cls-9"><path d="M267.67,371.58a.94.94,0,0,1-.71-1.27l.05-.14a1,1,0,0,1,1.31-.57,11.83,11.83,0,0,1,2.3,1.22,11.46,11.46,0,0,1-.43-2.65.94.94,0,0,1,1-1.06h.14a1,1,0,0,1,1,1.06,11,11,0,0,1-.44,2.65,12.47,12.47,0,0,1,2.31-1.22.94.94,0,0,1,1.3.6l0,.08a.92.92,0,0,1-.68,1.3,10.91,10.91,0,0,1-2.58.38,11.75,11.75,0,0,1,1.93,1.82,1,1,0,0,1-.17,1.41l-.1.08a1,1,0,0,1-1.44-.27,11.7,11.7,0,0,1-1.19-2.36A13.35,13.35,0,0,1,270,375a.94.94,0,0,1-1.43.27l-.11-.08a.94.94,0,0,1-.16-1.41,12.16,12.16,0,0,1,1.92-1.84A10.07,10.07,0,0,1,267.67,371.58Z" transform="translate(-19.62 -18)"/><path d="M277.81,371.58a.94.94,0,0,1-.71-1.27l.06-.14a.94.94,0,0,1,1.3-.57,11.83,11.83,0,0,1,2.3,1.22,11.46,11.46,0,0,1-.43-2.65.94.94,0,0,1,1-1.06h.14a1,1,0,0,1,1,1.06,11,11,0,0,1-.44,2.65,12.47,12.47,0,0,1,2.31-1.22.94.94,0,0,1,1.3.6l0,.08a.92.92,0,0,1-.68,1.3,10.91,10.91,0,0,1-2.58.38,11.75,11.75,0,0,1,1.93,1.82,1,1,0,0,1-.17,1.41l-.1.08a1,1,0,0,1-1.44-.27,11.7,11.7,0,0,1-1.19-2.36,13.39,13.39,0,0,1-1.22,2.36,1,1,0,0,1-1.44.27l-.11-.08a.94.94,0,0,1-.16-1.41,12.16,12.16,0,0,1,1.92-1.84A10.07,10.07,0,0,1,277.81,371.58Z" transform="translate(-19.62 -18)"/><path d="M288,371.58a.94.94,0,0,1-.71-1.27l.06-.14a.94.94,0,0,1,1.3-.57,11.83,11.83,0,0,1,2.3,1.22,11.46,11.46,0,0,1-.43-2.65.94.94,0,0,1,1-1.06h.14a1,1,0,0,1,1,1.06,11,11,0,0,1-.44,2.65,12.47,12.47,0,0,1,2.31-1.22.94.94,0,0,1,1.3.6l0,.08a.92.92,0,0,1-.68,1.3,10.91,10.91,0,0,1-2.58.38,11.75,11.75,0,0,1,1.93,1.82,1,1,0,0,1-.17,1.41l-.1.08a1,1,0,0,1-1.44-.27,11.7,11.7,0,0,1-1.19-2.36,13.39,13.39,0,0,1-1.22,2.36,1,1,0,0,1-1.44.27l-.11-.08a1,1,0,0,1-.16-1.41,12.16,12.16,0,0,1,1.92-1.84A10.14,10.14,0,0,1,288,371.58Z" transform="translate(-19.62 -18)"/><path d="M298.09,371.58a.94.94,0,0,1-.71-1.27l.06-.14a.94.94,0,0,1,1.3-.57,11.83,11.83,0,0,1,2.3,1.22,11.46,11.46,0,0,1-.43-2.65.94.94,0,0,1,1-1.06h.14a1,1,0,0,1,1,1.06,11,11,0,0,1-.44,2.65,12.47,12.47,0,0,1,2.31-1.22.94.94,0,0,1,1.3.6l0,.08a.92.92,0,0,1-.68,1.3,10.83,10.83,0,0,1-2.58.38,11.75,11.75,0,0,1,1.93,1.82,1,1,0,0,1-.16,1.41l-.11.08a1,1,0,0,1-1.44-.27,11.7,11.7,0,0,1-1.19-2.36,13.39,13.39,0,0,1-1.22,2.36,1,1,0,0,1-1.44.27l-.11-.08a1,1,0,0,1-.16-1.41,12.62,12.62,0,0,1,1.92-1.84A10.14,10.14,0,0,1,298.09,371.58Z" transform="translate(-19.62 -18)"/><path d="M308.23,371.58a.94.94,0,0,1-.71-1.27l.06-.14a.94.94,0,0,1,1.3-.57,11.83,11.83,0,0,1,2.3,1.22,11.46,11.46,0,0,1-.43-2.65,1,1,0,0,1,1-1.06h.13a1,1,0,0,1,1,1.06,11,11,0,0,1-.44,2.65,12.47,12.47,0,0,1,2.31-1.22.94.94,0,0,1,1.3.6l0,.08a.92.92,0,0,1-.68,1.3,10.83,10.83,0,0,1-2.58.38,11.75,11.75,0,0,1,1.93,1.82,1,1,0,0,1-.16,1.41l-.11.08A1,1,0,0,1,313,375a11.7,11.7,0,0,1-1.19-2.36,13.39,13.39,0,0,1-1.22,2.36,1,1,0,0,1-1.44.27l-.11-.08a1,1,0,0,1-.16-1.41,12.62,12.62,0,0,1,1.92-1.84A10.14,10.14,0,0,1,308.23,371.58Z" transform="translate(-19.62 -18)"/><path d="M318.37,371.58a.94.94,0,0,1-.71-1.27l.06-.14a.94.94,0,0,1,1.3-.57,11.55,11.55,0,0,1,2.3,1.22,11.46,11.46,0,0,1-.43-2.65,1,1,0,0,1,1-1.06H322a1,1,0,0,1,1,1.06,11,11,0,0,1-.44,2.65,12.47,12.47,0,0,1,2.31-1.22.94.94,0,0,1,1.3.6l0,.08a.92.92,0,0,1-.68,1.3,10.83,10.83,0,0,1-2.58.38,11.75,11.75,0,0,1,1.93,1.82,1,1,0,0,1-.16,1.41l-.11.08a1,1,0,0,1-1.44-.27,11.7,11.7,0,0,1-1.19-2.36,13.39,13.39,0,0,1-1.22,2.36,1,1,0,0,1-1.44.27l-.11-.08a1,1,0,0,1-.16-1.41,13.1,13.1,0,0,1,1.92-1.84A10.14,10.14,0,0,1,318.37,371.58Z" transform="translate(-19.62 -18)"/><path d="M328.51,371.58a.94.94,0,0,1-.71-1.27l.06-.14a.94.94,0,0,1,1.3-.57,11.55,11.55,0,0,1,2.3,1.22,11.46,11.46,0,0,1-.43-2.65,1,1,0,0,1,1-1.06h.13a1,1,0,0,1,1,1.06,11,11,0,0,1-.44,2.65A12.47,12.47,0,0,1,335,369.6a.94.94,0,0,1,1.3.6l0,.08a.92.92,0,0,1-.68,1.3,10.83,10.83,0,0,1-2.58.38,11.75,11.75,0,0,1,1.93,1.82,1,1,0,0,1-.16,1.41l-.11.08a1,1,0,0,1-1.44-.27,11.7,11.7,0,0,1-1.19-2.36,13.39,13.39,0,0,1-1.22,2.36,1,1,0,0,1-1.44.27l-.11-.08a1,1,0,0,1-.16-1.41,12.72,12.72,0,0,1,1.93-1.84A10.16,10.16,0,0,1,328.51,371.58Z" transform="translate(-19.62 -18)"/><path d="M338.65,371.58a.94.94,0,0,1-.71-1.27l.06-.14a.94.94,0,0,1,1.3-.57,11.55,11.55,0,0,1,2.3,1.22,11.46,11.46,0,0,1-.43-2.65,1,1,0,0,1,1-1.06h.13a1,1,0,0,1,1,1.06,11,11,0,0,1-.44,2.65,12.47,12.47,0,0,1,2.31-1.22.94.94,0,0,1,1.3.6l0,.08a.92.92,0,0,1-.68,1.3,10.83,10.83,0,0,1-2.58.38,11.75,11.75,0,0,1,1.93,1.82,1,1,0,0,1-.16,1.41l-.11.08a1,1,0,0,1-1.44-.27,11.7,11.7,0,0,1-1.19-2.36A13.39,13.39,0,0,1,341,375a1,1,0,0,1-1.44.27l-.11-.08a1,1,0,0,1-.16-1.41,12.72,12.72,0,0,1,1.93-1.84A10.16,10.16,0,0,1,338.65,371.58Z" transform="translate(-19.62 -18)"/></g><g class="cls-9"><path class="cls-10" d="M429.4,322.38v-7.12a8.14,8.14,0,0,1,16.27,0v7.07h3.24v-7.07a11.38,11.38,0,0,0-22.75,0v7.12Z" transform="translate(-19.62 -18)"/><rect class="cls-10" x="405.34" y="304.4" width="24.83" height="20.54"/><path class="cls-10" d="M440,330.93a2.71,2.71,0,0,0-5.41,0,2.63,2.63,0,0,0,1.42,2.33l-.46,4.66H439l-.45-4.66A2.65,2.65,0,0,0,440,330.93Z" transform="translate(-19.62 -18)"/></g><g class="cls-9"><path class="cls-10" d="M77.61,99V91.86a8.14,8.14,0,0,1,16.27,0v7.07h3.24V91.86a11.38,11.38,0,0,0-22.75,0V99Z" transform="translate(-19.62 -18)"/><rect class="cls-10" x="53.55" y="81" width="24.83" height="20.54"/><path class="cls-10" d="M88.17,107.53a2.71,2.71,0,0,0-5.41,0,2.63,2.63,0,0,0,1.42,2.33l-.46,4.67H87.2l-.45-4.67A2.65,2.65,0,0,0,88.17,107.53Z" transform="translate(-19.62 -18)"/></g><g class="cls-9"><path class="cls-10" d="M387.62,45.17V40.5a5.34,5.34,0,0,1,10.67,0v4.64h2.13V40.5a7.46,7.46,0,0,0-14.92,0v4.67Z" transform="translate(-19.62 -18)"/><rect class="cls-10" x="365.09" y="27.18" width="16.29" height="13.48"/><path class="cls-10" d="M394.55,50.78a1.78,1.78,0,0,0-3.55,0,1.72,1.72,0,0,0,.93,1.52l-.3,3.07h2.28l-.29-3.07A1.72,1.72,0,0,0,394.55,50.78Z" transform="translate(-19.62 -18)"/></g></g><g id="Window_2" data-name="Window 2"><rect class="cls-11" x="97.55" y="68.62" width="318.28" height="169.04"/><rect class="cls-12" x="153.02" y="68.62" width="262.81" height="15.85"/><rect class="cls-13" x="208.75" y="68.62" width="207.07" height="15.85"/><rect class="cls-8" x="97.29" y="53.13" width="318.54" height="15.85"/><path class="cls-13" d="M338.05,82.19H130.94a3.43,3.43,0,0,1-3.43-3.43h0a3.42,3.42,0,0,1,3.43-3.42H338.05a3.43,3.43,0,0,1,3.43,3.42h0A3.44,3.44,0,0,1,338.05,82.19Z" transform="translate(-19.62 -18)"/><circle class="cls-11" cx="380.95" cy="61.22" r="2.88"/><path class="cls-11" d="M415.46,79.22a2.89,2.89,0,1,0-2.88,2.88A2.88,2.88,0,0,0,415.46,79.22Z" transform="translate(-19.62 -18)"/><circle class="cls-11" cx="404.97" cy="61.22" r="2.88"/><polygon class="cls-14" points="118.11 136.3 153.5 136.3 153.5 112.28 132.96 112.28 130.88 106.42 118.11 106.42 118.11 136.3"/><polygon class="cls-14" points="118.11 182.69 153.5 182.69 153.5 158.67 132.96 158.67 130.88 152.81 118.11 152.81 118.11 182.69"/><polygon class="cls-14" points="118.11 229.08 153.5 229.08 153.5 205.06 132.96 205.06 130.88 199.2 118.11 199.2 118.11 229.08"/><polygon class="cls-14" points="167.28 136.3 202.66 136.3 202.66 112.28 182.13 112.28 180.04 106.42 167.28 106.42 167.28 136.3"/><polygon class="cls-14" points="167.28 182.69 202.66 182.69 202.66 158.67 182.13 158.67 180.04 152.81 167.28 152.81 167.28 182.69"/><polygon class="cls-14" points="167.28 229.08 202.66 229.08 202.66 205.06 182.13 205.06 180.04 199.2 167.28 199.2 167.28 229.08"/><polygon class="cls-14" points="216.44 136.3 251.83 136.3 251.83 112.28 231.29 112.28 229.2 106.42 216.44 106.42 216.44 136.3"/><polygon class="cls-14" points="216.44 182.69 251.83 182.69 251.83 158.67 231.29 158.67 229.2 152.81 216.44 152.81 216.44 182.69"/><polygon class="cls-14" points="216.44 229.08 251.83 229.08 251.83 205.06 231.29 205.06 229.2 199.2 216.44 199.2 216.44 229.08"/><polygon class="cls-14" points="265.61 136.3 300.99 136.3 300.99 112.28 280.45 112.28 278.37 106.42 265.61 106.42 265.61 136.3"/><polygon class="cls-14" points="265.61 182.69 300.99 182.69 300.99 158.67 280.45 158.67 278.37 152.81 265.61 152.81 265.61 182.69"/><polygon class="cls-14" points="265.61 229.08 300.99 229.08 300.99 205.06 280.45 205.06 278.37 199.2 265.61 199.2 265.61 229.08"/><polygon class="cls-14" points="314.77 136.3 350.16 136.3 350.16 112.28 329.62 112.28 327.53 106.42 314.77 106.42 314.77 136.3"/><polygon class="cls-14" points="314.77 182.69 350.16 182.69 350.16 158.67 329.62 158.67 327.53 152.81 314.77 152.81 314.77 182.69"/><polygon class="cls-14" points="314.77 229.08 350.16 229.08 350.16 205.06 329.62 205.06 327.53 199.2 314.77 199.2 314.77 229.08"/><polygon class="cls-14" points="363.94 136.3 399.32 136.3 399.32 112.28 378.78 112.28 376.7 106.42 363.94 106.42 363.94 136.3"/><polygon class="cls-14" points="363.94 182.69 399.32 182.69 399.32 158.67 378.78 158.67 376.7 152.81 363.94 152.81 363.94 182.69"/><polygon class="cls-14" points="363.94 229.08 399.32 229.08 399.32 205.06 378.78 205.06 376.7 199.2 363.94 199.2 363.94 229.08"/></g><g id="Window_1" data-name="Window 1"><rect class="cls-15" x="188.75" y="102.01" width="127.5" height="112.5"/><rect class="cls-11" x="191.94" y="96.26" width="127.5" height="112.5"/><rect class="cls-8" x="191.94" y="96.26" width="127.5" height="8.04"/><path class="cls-11" d="M267.34,162.44V150.58a8.13,8.13,0,0,1,16.26,0v6.93h3.24v-6.93a11.37,11.37,0,0,0-22.74,0v11.86Z" transform="translate(-19.62 -18)"/><rect class="cls-16" x="243.28" y="143.28" width="24.83" height="20.54"/><line class="cls-17" x1="271.65" y1="135.75" x2="273.26" y2="132.07"/><line class="cls-17" x1="271.88" y1="140.11" x2="277.86" y2="140.11"/><line class="cls-17" x1="271.19" y1="144.25" x2="274.41" y2="147.7"/><path class="cls-8" d="M277.89,169.81a2.71,2.71,0,1,0-4,2.33l-.45,4.67h3.47l-.45-4.67A2.63,2.63,0,0,0,277.89,169.81Z" transform="translate(-19.62 -18)"/><rect class="cls-11" x="207.24" y="172.19" width="96.91" height="17.49" rx="4"/><path class="cls-7" d="M236.26,199.49a.94.94,0,0,1-.7-1.28l.05-.13a.94.94,0,0,1,1.3-.57,11.1,11.1,0,0,1,2.31,1.22,11,11,0,0,1-.44-2.66,1,1,0,0,1,1-1.06h.14a1,1,0,0,1,1,1.06,11.45,11.45,0,0,1-.43,2.66,12.14,12.14,0,0,1,2.3-1.22.93.93,0,0,1,1.3.59l0,.09a.93.93,0,0,1-.68,1.3,11.36,11.36,0,0,1-2.57.38,10.86,10.86,0,0,1,1.92,1.81,1,1,0,0,1-.16,1.41l-.11.09a.94.94,0,0,1-1.44-.28,12.13,12.13,0,0,1-1.19-2.35,13.26,13.26,0,0,1-1.22,2.35.94.94,0,0,1-1.44.28l-.1-.09a1,1,0,0,1-.17-1.41,12.72,12.72,0,0,1,1.93-1.84A10.25,10.25,0,0,1,236.26,199.49Z" transform="translate(-19.62 -18)"/><path class="cls-7" d="M246.4,199.49a.94.94,0,0,1-.7-1.28l.05-.13a.94.94,0,0,1,1.3-.57,11.1,11.1,0,0,1,2.31,1.22,11,11,0,0,1-.44-2.66,1,1,0,0,1,1-1.06H250a1,1,0,0,1,1,1.06,11.45,11.45,0,0,1-.43,2.66,12.14,12.14,0,0,1,2.3-1.22,1,1,0,0,1,1.31.59l0,.09a.93.93,0,0,1-.68,1.3,11.36,11.36,0,0,1-2.57.38,10.86,10.86,0,0,1,1.92,1.81,1,1,0,0,1-.16,1.41l-.11.09a.93.93,0,0,1-1.43-.28,11.57,11.57,0,0,1-1.2-2.35,13.26,13.26,0,0,1-1.22,2.35.94.94,0,0,1-1.44.28l-.1-.09a1,1,0,0,1-.17-1.41,12.72,12.72,0,0,1,1.93-1.84A10.25,10.25,0,0,1,246.4,199.49Z" transform="translate(-19.62 -18)"/><path class="cls-7" d="M256.54,199.49a1,1,0,0,1-.7-1.28l0-.13a.94.94,0,0,1,1.3-.57,11.1,11.1,0,0,1,2.31,1.22,11,11,0,0,1-.43-2.66,1,1,0,0,1,1-1.06h.14a1,1,0,0,1,1,1.06,11.45,11.45,0,0,1-.43,2.66,12.14,12.14,0,0,1,2.3-1.22,1,1,0,0,1,1.31.59l0,.09a.93.93,0,0,1-.67,1.3,11.54,11.54,0,0,1-2.58.38,10.86,10.86,0,0,1,1.92,1.81,1,1,0,0,1-.16,1.41l-.11.09a.93.93,0,0,1-1.43-.28,12.1,12.1,0,0,1-1.2-2.35,13.26,13.26,0,0,1-1.22,2.35.93.93,0,0,1-1.43.28l-.11-.09a1,1,0,0,1-.17-1.41,12.72,12.72,0,0,1,1.93-1.84A10.25,10.25,0,0,1,256.54,199.49Z" transform="translate(-19.62 -18)"/><path class="cls-7" d="M266.68,199.49a1,1,0,0,1-.7-1.28l0-.13a.94.94,0,0,1,1.3-.57,11.1,11.1,0,0,1,2.31,1.22,11.45,11.45,0,0,1-.43-2.66,1,1,0,0,1,1-1.06h.14a1,1,0,0,1,1,1.06,11.45,11.45,0,0,1-.43,2.66,12.14,12.14,0,0,1,2.3-1.22,1,1,0,0,1,1.31.59l0,.09a.93.93,0,0,1-.67,1.3,11.54,11.54,0,0,1-2.58.38,10.86,10.86,0,0,1,1.92,1.81,1,1,0,0,1-.16,1.41l-.11.09a.93.93,0,0,1-1.43-.28,12.1,12.1,0,0,1-1.2-2.35A13.26,13.26,0,0,1,269,202.9a.93.93,0,0,1-1.43.28l-.11-.09a1,1,0,0,1-.17-1.41,12.72,12.72,0,0,1,1.93-1.84A10.25,10.25,0,0,1,266.68,199.49Z" transform="translate(-19.62 -18)"/><path class="cls-7" d="M276.82,199.49a1,1,0,0,1-.7-1.28l.05-.13a1,1,0,0,1,1.31-.57,11.3,11.3,0,0,1,2.3,1.22,11.45,11.45,0,0,1-.43-2.66,1,1,0,0,1,1-1.06h.14a1,1,0,0,1,1,1.06,11.45,11.45,0,0,1-.43,2.66,12.14,12.14,0,0,1,2.3-1.22,1,1,0,0,1,1.31.59l0,.09a.93.93,0,0,1-.67,1.3,11.54,11.54,0,0,1-2.58.38,10.86,10.86,0,0,1,1.92,1.81,1,1,0,0,1-.16,1.41l-.11.09a.93.93,0,0,1-1.43-.28,12.1,12.1,0,0,1-1.2-2.35,13.26,13.26,0,0,1-1.22,2.35.93.93,0,0,1-1.43.28l-.11-.09a.94.94,0,0,1-.16-1.41,12.16,12.16,0,0,1,1.92-1.84A10.25,10.25,0,0,1,276.82,199.49Z" transform="translate(-19.62 -18)"/><path class="cls-7" d="M287,199.49a1,1,0,0,1-.7-1.28l.05-.13a1,1,0,0,1,1.31-.57,11.3,11.3,0,0,1,2.3,1.22,11.45,11.45,0,0,1-.43-2.66,1,1,0,0,1,1-1.06h.14a1,1,0,0,1,1,1.06,11.45,11.45,0,0,1-.43,2.66,11.9,11.9,0,0,1,2.31-1.22.94.94,0,0,1,1.3.59l0,.09a.93.93,0,0,1-.67,1.3,11.45,11.45,0,0,1-2.58.38,11.31,11.31,0,0,1,1.93,1.81,1,1,0,0,1-.17,1.41l-.11.09a.93.93,0,0,1-1.43-.28,12.1,12.1,0,0,1-1.2-2.35,13.26,13.26,0,0,1-1.22,2.35.93.93,0,0,1-1.43.28l-.11-.09a.94.94,0,0,1-.16-1.41,12.16,12.16,0,0,1,1.92-1.84A10.25,10.25,0,0,1,287,199.49Z" transform="translate(-19.62 -18)"/><path class="cls-7" d="M297.11,199.49a1,1,0,0,1-.71-1.28l.05-.13a1,1,0,0,1,1.31-.57,11.3,11.3,0,0,1,2.3,1.22,11.45,11.45,0,0,1-.43-2.66,1,1,0,0,1,1-1.06h.14a1,1,0,0,1,1,1.06,11,11,0,0,1-.44,2.66,11.9,11.9,0,0,1,2.31-1.22.94.94,0,0,1,1.3.59l0,.09a.93.93,0,0,1-.68,1.3,11.45,11.45,0,0,1-2.58.38,11.31,11.31,0,0,1,1.93,1.81,1,1,0,0,1-.17,1.41l-.1.09a.94.94,0,0,1-1.44-.28,11.59,11.59,0,0,1-1.19-2.35,13.22,13.22,0,0,1-1.23,2.35.93.93,0,0,1-1.43.28l-.11-.09a.94.94,0,0,1-.16-1.41,12.16,12.16,0,0,1,1.92-1.84A10.1,10.1,0,0,1,297.11,199.49Z" transform="translate(-19.62 -18)"/><path class="cls-7" d="M307.25,199.49a1,1,0,0,1-.71-1.28l0-.13a1,1,0,0,1,1.31-.57,11.3,11.3,0,0,1,2.3,1.22,11.45,11.45,0,0,1-.43-2.66,1,1,0,0,1,1-1.06h.14a1,1,0,0,1,1,1.06,11,11,0,0,1-.44,2.66,11.9,11.9,0,0,1,2.31-1.22.94.94,0,0,1,1.3.59l0,.09a.93.93,0,0,1-.68,1.3,11.45,11.45,0,0,1-2.58.38,11.31,11.31,0,0,1,1.93,1.81,1,1,0,0,1-.17,1.41l-.11.09a.93.93,0,0,1-1.43-.28,11.59,11.59,0,0,1-1.19-2.35,13.22,13.22,0,0,1-1.23,2.35.93.93,0,0,1-1.43.28l-.11-.09a.94.94,0,0,1-.16-1.41,12.16,12.16,0,0,1,1.92-1.84A10.1,10.1,0,0,1,307.25,199.49Z" transform="translate(-19.62 -18)"/></g><g id="Character"><path class="cls-11" d="M148.35,454.5h3.45a.89.89,0,0,0,.89-.84l2.74-28.54h-10.7l2.73,28.54A.9.9,0,0,0,148.35,454.5Z" transform="translate(-19.62 -18)"/><path class="cls-11" d="M115,454.5h3.45a.9.9,0,0,0,.89-.84l2.73-28.54h-10.7l2.74,28.54A.89.89,0,0,0,115,454.5Z" transform="translate(-19.62 -18)"/><path class="cls-11" d="M169.35,454.5h3.45a.89.89,0,0,0,.89-.84l2.74-28.54h-10.7l2.73,28.54A.9.9,0,0,0,169.35,454.5Z" transform="translate(-19.62 -18)"/><path class="cls-11" d="M204,454.5h3.45a.9.9,0,0,0,.89-.84l2.73-28.54h-10.7l2.74,28.54A.89.89,0,0,0,204,454.5Z" transform="translate(-19.62 -18)"/><path class="cls-11" d="M153.56,426.29h68.52s7-23.4,12.46-46,11.68-51,5.06-56.85-24.14,4.29-37.38,7-16-.39-24.91-9.73-16.74-24.53-31.93-34.26-26.47-11.29-37-4.67a36.27,36.27,0,0,0-11.3,24.13c-.77,15.19,3.51,34.27,9,44.78S153.56,426.29,153.56,426.29Z" transform="translate(-19.62 -18)"/><path class="cls-17" d="M143.93,383.45h74s13.33-13.33,15.33-45.33" transform="translate(-19.62 -18)"/><path class="cls-18" d="M195.66,254.05l-8.38,5.12s5.82,31.89,4.43,48.65-8.38,32.82-8.38,32.82H205.9s8.38-20,12.11-34-2.79-46.79-2.79-46.79Z" transform="translate(-19.62 -18)"/><path class="cls-12" d="M288.56,339.05s4.81-1.53,6.1-1.52,5.48,3.29,5.48,3.29.17,1.2-.78,1.45-4.2-2-4.2-2l-5.41,1.6Z" transform="translate(-19.62 -18)"/><path class="cls-12" d="M289.08,336a40.71,40.71,0,0,1,6.15,1.35c1.15.57,3.45,5.37,3.45,5.37s-.38,1.15-1.34,1-2.88-3.65-2.88-3.65l-5.57-1Z" transform="translate(-19.62 -18)"/><path class="cls-12" d="M283.83,334.45l6.34,1.54,4,2.69,2.3,5.56a2.12,2.12,0,0,1-1.73.58c-1-.19-5-4.61-5-4.61L284,336.56l-1.92-2.11Z" transform="translate(-19.62 -18)"/><path class="cls-12" d="M270,332.73s9.79.38,11.9.38,7.68,4.41,8.64,4.8,5,6.14,5,6.14.19,0-1.15.39-3.46-1-3.46-1l-2.68-3.27-6.53-1.15s4.8,2.5,5.95,2.88,1.92,1.73,1.54,2.5-6.18-1.72-6.18-1.72a5.22,5.22,0,0,1-4.47,0c-2.31-1.15-2.61-1.18-5.05-2.31s-7.34-4-7.34-4Z" transform="translate(-19.62 -18)"/><path class="cls-16" d="M220.1,264.29s3.73.7,4.66,2.79,7,49.59,7,49.59l40,14.62-.77,14s-47.37-5.81-50.63-5.11-11.18,1.63-14.44-.94S215,326,217.26,316.12c5.34-23.33,4.67-39.33,4.67-39.33S215.45,261.5,220.1,264.29Z" transform="translate(-19.62 -18)"/><path class="cls-16" d="M225.23,291.52s-5.82,23.28-8.38,29.57-7.69,16.76-7.69,16.76l-5.58.93s11.64-25.14,13.73-35.15-2.56-35.38-2.79-36.31,1.63-6.75,5.12-5.59" transform="translate(-19.62 -18)"/><polygon class="cls-11" points="195.13 267.01 188.38 284 181.17 265.84 189.78 259.09 195.13 267.01"/><polygon class="cls-11" points="196.76 253.27 199.32 273.06 188.38 264.68 196.76 253.27"/><path class="cls-12" d="M246.88,236.07s-.24,13.14-1.31,15-3.33,4.63-3.43,7.14,2.9,7.93,1.1,9.67a4.41,4.41,0,0,1-4.27.89s-5.85,7-9.12,8.62-12-3-12-3l-8.71,9-16.06-29.1,9.2-6.19s3.55-18.29,14.94-22.14S245.1,231.46,246.88,236.07Z" transform="translate(-19.62 -18)"/><path class="cls-17" d="M214.8,252.63s-3.52,7.35-.5,12" transform="translate(-19.62 -18)"/><path class="cls-7" d="M237.25,254.85c-.44,1-.42,2,.05,2.18s1.21-.43,1.65-1.43.43-2,0-2.18S237.7,253.85,237.25,254.85Z" transform="translate(-19.62 -18)"/><path class="cls-17" d="M235.11,269.33s-3.52-.71-3.52-3.52" transform="translate(-19.62 -18)"/><line class="cls-17" x1="215.26" y1="237.73" x2="217.84" y2="240.08"/><path class="cls-17" d="M242,251s-.13-3.45-5.72-2" transform="translate(-19.62 -18)"/><path class="cls-8" d="M254.55,226.23c-2.46.27-4.91,2.18-5.73.54s-.27-7.64-4.37-8.18-3.82,1.36-5.18,1.64-3-6-8.18-5.19-8.44,3-8.73,4.08c-8.94-.07-14.44,3.57-18.38,10.87-4.33,8-1.68,18.1-1.68,18.1s-4.08,3.16-.82,4.09,13.32.45,13.32.45l-1.06-.47c-1.07-.47-2.79-4,.73-9.1s5.91-.69,6.22,1.49.49,4,1.77,4.61,2.15-.83,2.48-2.72,4.18-2,7-3.24.15-3.75-2.22-7.61,3.64-4.75,9.22-1.25c3.22,2,4.9,3.1,6.49,3.3l.08.05s2.72,2.18,4.91.27,3.54-2.18,5.45-4.37S257,226,254.55,226.23Z" transform="translate(-19.62 -18)"/><path class="cls-11" d="M194,252.65l15.37,29.8-9.78,10.24s-8.38-22.58-9.31-28.17-1.63-9.54-1.63-9.54Z" transform="translate(-19.62 -18)"/><path class="cls-8" d="M202.93,336.79s45-2.34,50.67,0,7,8.33,6.33,14.33-4,41.33-5.33,51.33-2,22.34-1,24.67,4,6.33,3,8.67-2.67,3.33-2.67,4.33a6.41,6.41,0,0,0,1.33,2.67s12.34,5.33,16.67,7,4.67,3,3.67,3.66-21.67,0-25.34,0-10.66-2.33-10.66-2.33v1.67h-9v-6.34a54.53,54.53,0,0,1,.33-6s-1.67-4.33-1.33-6,2.33-5.33,3-8.66,0-8-.34-11.67a28.33,28.33,0,0,1,.34-8c.33-2-2-38.33-2-38.33s-26.34,8-29,8.33-24.34,8.33-33.34,6,3.67-30.67,13.67-40.33S202.93,336.79,202.93,336.79Z" transform="translate(-19.62 -18)"/><path class="cls-8" d="M184.6,333.45s29.66,2.34,33,5.67,2.33,10,2.33,14.33-4,62-4.33,65.34,3.33,6.66,2,9a15.22,15.22,0,0,0-2,6c0,1,9,8.33,12.66,10.33s14,4.33,15.67,6,1.33,3-1.67,4-28,0-28,0-3.66,0-5-1a9.09,9.09,0,0,0-2.33-1.33L206.6,454h-13a94,94,0,0,1-1.34-10.9,54,54,0,0,1,1-8.33,10.42,10.42,0,0,1-1.66-6c.33-3,2.66-4.34,2.66-6.34s-2-8-1.66-11.66.66-8,.66-8l-3-29.34s-20,11-29.66,10-12.34-2.33-15-7-2.67-24.33,1.66-32S175.6,329.79,184.6,333.45Z" transform="translate(-19.62 -18)"/><path class="cls-16" d="M188.68,255s7,17.46,7.68,27.93-.23,34.92-2.79,41.9-3.73,11.41-3.73,11.41-23.27,3.49-26.3,4.65-9.31,10.25-10.48,17.93c-.33,2.21-.57,4.6-.74,6.88a56.89,56.89,0,0,0,1.17,15.56c.19,1,.23,1.76-.06,2.05-.93.93-13.4-4.71-17.59-19.14s-2.1-31.42,1.63-39.34,18.15-55.17,24.44-61.45S188.68,255,188.68,255Z" transform="translate(-19.62 -18)"/><path class="cls-12" d="M267.43,338.84s8.8,1.14,11.07,1.71a7.69,7.69,0,0,1,3.8,2.63l-.85.79-6.36-2.41Z" transform="translate(-19.62 -18)"/><path class="cls-12" d="M271,340.24s5.37.33,6,1,3.51,5.48,3.51,5.48l-1.31.88-3.62-3.4L271,341.67Z" transform="translate(-19.62 -18)"/><path class="cls-12" d="M261.16,338.26s10,.85,11.95,2,4.5,6.25,4.5,6.25l-1.42.56-4.82-4.82-11.91-2Z" transform="translate(-19.62 -18)"/><path class="cls-12" d="M260.72,343.31s2.75,1.43,4.17,1.43,5.92-1.54,5.92-1.54a53.92,53.92,0,0,0-5.37-2C264.56,341.12,260.72,343.31,260.72,343.31Z" transform="translate(-19.62 -18)"/><path class="cls-12" d="M249,333.72s11.91,2.84,13.33,3.69,8.23,4.25,9.08,4.82,3.41,5.11,3.41,5.11-1.71,2-2.27.56a19.23,19.23,0,0,0-3.12-4l-5.11-1.7a15.09,15.09,0,0,1-6,1.42c-3.12,0-6.48-3.08-6.48-3.08L246.12,342Z" transform="translate(-19.62 -18)"/><path class="cls-16" d="M178.46,267.24s7.07,6.17,7.65,13.13.5,9.76.55,10.93,4.2,31.74,4.2,31.74l59.43,9.63-1.14,13.2-67.72-1.3s-4.62.93-7.12-2.44-17-54.48-17-54.48" transform="translate(-19.62 -18)"/><path class="cls-17" d="M179.21,327.69a12.13,12.13,0,0,0-1.79,1.91" transform="translate(-19.62 -18)"/><path class="cls-17" d="M190,324.07a18.47,18.47,0,0,0-8.41,2" transform="translate(-19.62 -18)"/><path class="cls-17" d="M185.89,326.61s-5.73,1.92-6.92,5.94" transform="translate(-19.62 -18)"/><path class="cls-11" d="M153.56,426.29s-1.17-41.7-11.68-69-16.74-30.76-21-29.59-10.51,8.56-14.4,3.5-9.73-19.08-7.4-31.54,7-14.79,9.35-17.9-10.13,4.28-15.58,12.45-5.45,28-2.33,48.67,10.9,79.08,13.62,81.41,9.35,2.34,9.35,2.34h35.82Z" transform="translate(-19.62 -18)"/></g><g id="Device"><rect class="cls-11" x="236.69" y="326.55" width="91.5" height="4"/><rect class="cls-19" x="283.87" y="326.55" width="44.32" height="4"/><polygon class="cls-12" points="340.94 290.79 296.62 290.79 283.87 326.54 328.19 326.54 340.94 290.79"/></g><g id="Table"><path class="cls-20" d="M314.07,351h.63a2.59,2.59,0,0,1,2.59,2.59v101a0,0,0,0,1,0,0h-5.8a0,0,0,0,1,0,0v-101A2.59,2.59,0,0,1,314.07,351Z" transform="translate(609.14 787.58) rotate(180)"/><path class="cls-20" d="M324.62,351h.63a2.59,2.59,0,0,1,2.59,2.59v101a0,0,0,0,1,0,0H322a0,0,0,0,1,0,0v-101A2.59,2.59,0,0,1,324.62,351Z" transform="translate(630.24 787.58) rotate(180)"/><path class="cls-20" d="M242.52,351h.63a2.59,2.59,0,0,1,2.59,2.59v101a0,0,0,0,1,0,0h-5.8a0,0,0,0,1,0,0v-101A2.59,2.59,0,0,1,242.52,351Z" transform="translate(466.05 787.58) rotate(180)"/><path class="cls-20" d="M387,351h.63a2.59,2.59,0,0,1,2.59,2.59v101a0,0,0,0,1,0,0h-5.8a0,0,0,0,1,0,0v-101A2.59,2.59,0,0,1,387,351Z" transform="translate(754.99 787.58) rotate(-180)"/><rect class="cls-11" x="233.17" y="348.66" width="162.49" height="4.72" transform="translate(609.23 684.04) rotate(180)"/><rect class="cls-11" x="233.17" y="398.7" width="162.49" height="4.72" transform="translate(609.23 784.11) rotate(180)"/><rect class="cls-11" x="242.54" y="375.88" width="42.43" height="4.73"/><rect class="cls-11" x="265.91" y="375.88" width="19.06" height="4.73"/><rect class="cls-11" x="306.96" y="375.88" width="42.43" height="4.73"/><rect class="cls-11" x="330.33" y="375.88" width="19.06" height="4.73"/><rect class="cls-11" x="239.03" y="370.93" width="42.43" height="4.73"/><rect class="cls-11" x="262.4" y="370.93" width="19.06" height="4.73"/></g><g id="Floor"><line class="cls-17" x1="17.68" y1="436.56" x2="455.68" y2="436.56"/></g></svg>